<?xml version="1.0" encoding="utf-8"?>
<!-- Generator: Adobe Illustrator 15.1.0, SVG Export Plug-In . SVG Version: 6.00 Build 0)  -->
<!DOCTYPE svg PUBLIC "-//W3C//DTD SVG 1.1//EN" "http://www.w3.org/Graphics/SVG/1.1/DTD/svg11.dtd">
<svg version="1.1" id="Ebene_1" xmlns="http://www.w3.org/2000/svg" xmlns:xlink="http://www.w3.org/1999/xlink" x="0px" y="0px"
	 width="1984px" height="409px" viewBox="0 0 1984 409" enable-background="new 0 0 1984 409" xml:space="preserve">
<circle fill="#009EE0" stroke="#009EE0" stroke-width="2" cx="398.18" cy="106.255" r="105.255"/>
<g enable-background="new    ">
	<path d="M712.959,23.653h14.001v28.202h28.001V23.653h14.001v69.805h-14.001V62.856H726.96v30.602h-14.001V23.653z"/>
	<path d="M807.558,40.755c15.301,0,27.001,10.301,27.001,27.302c0,14.801-9.9,26.602-27.001,26.602
		c-17.001,0-26.902-11.801-26.902-26.602C780.656,51.055,792.357,40.755,807.558,40.755z M807.558,84.258
		c10.301,0,13-9.201,13-17.802c0-7.9-4.2-15.301-13-15.301c-8.701,0-12.901,7.601-12.901,15.301
		C794.657,74.957,797.358,84.258,807.558,84.258z"/>
	<path d="M878.458,53.055c-2.4-1.101-5-1.9-9.1-1.9c-8.301,0-13.601,6.601-13.601,16.301c0,9.501,4.5,16.802,13.901,16.802
		c3.8,0,8-1.4,10.301-2.4l0.6,11.101c-3.9,1.2-7.9,1.7-13.4,1.7c-16.901,0-25.402-11.501-25.402-27.202
		c0-14.9,8.801-26.701,24.902-26.701c5.4,0,9.3,0.6,13,1.7L878.458,53.055z"/>
	<path d="M889.455,18.453h13.401v30.502h0.2c3.4-5,9.2-8.2,16.201-8.2c12.201,0,17.501,8.601,17.501,20.201v32.502h-13.4V65.956
		c0-6.3-0.1-14.801-8.701-14.801c-9.701,0-11.801,10.501-11.801,17.102v25.201h-13.401V18.453z"/>
	<path d="M981.156,52.756c-4.101-1.4-7.101-2.2-12.001-2.2c-3.6,0-7.9,1.3-7.9,5.7c0,8.2,23.301,3,23.301,21.602
		c0,12-10.701,16.801-21.601,16.801c-5.101,0-10.301-0.9-15.201-2.2l0.8-11.001c4.2,2.101,8.601,3.4,13.201,3.4
		c3.4,0,8.801-1.3,8.801-6.301c0-10.101-23.302-3.2-23.302-21.801c0-11.101,9.701-16.001,20.201-16.001c6.301,0,10.401,1,14.601,1.9
		L981.156,52.756z"/>
	<path d="M1028.354,53.055c-2.399-1.101-5-1.9-9.1-1.9c-8.301,0-13.602,6.601-13.602,16.301c0,9.501,4.501,16.802,13.901,16.802
		c3.8,0,8.001-1.4,10.301-2.4l0.601,11.101c-3.9,1.2-7.901,1.7-13.401,1.7c-16.901,0-25.402-11.501-25.402-27.202
		c0-14.9,8.801-26.701,24.902-26.701c5.399,0,9.3,0.6,13.001,1.7L1028.354,53.055z"/>
	<path d="M1039.351,18.453h13.401v30.502h0.199c3.4-5,9.201-8.2,16.201-8.2c12.201,0,17.501,8.601,17.501,20.201v32.502h-13.401
		V65.956c0-6.3-0.1-14.801-8.699-14.801c-9.701,0-11.801,10.501-11.801,17.102v25.201h-13.401V18.453z"/>
	<path d="M1147.754,93.458h-12.701v-7h-0.201c-4.1,5-9.9,8.2-16.9,8.2c-12.201,0-17.501-8.601-17.501-20.201V41.955h13.401v27.501
		c0,6.301,0.1,14.802,8.7,14.802c9.7,0,11.8-10.501,11.8-17.102V41.955h13.402V93.458z"/>
	<path d="M1161.85,18.453h13.4v75.005h-13.4V18.453z"/>
	<path d="M1230.653,90.557c-4.9,2.7-10.502,4.101-17.701,4.101c-17.002,0-26.902-9.801-26.902-26.702
		c0-14.9,7.9-27.201,23.902-27.201c19.1,0,24.5,13.101,24.5,31.102h-35.602c0.6,8.301,6.4,13.001,14.701,13.001
		c6.5,0,12.1-2.4,17.102-5.2V90.557z M1221.651,62.656c-0.398-6.501-3.4-12.101-10.9-12.101s-11.301,5.2-11.9,12.101H1221.651z"/>
</g>
<g enable-background="new    ">
	<path d="M712.959,143.653h24.401c9,0,22.501,2.601,22.501,17.901c0,8.301-5.601,14.101-13.901,15.602v0.199
		c9.5,0.9,16.001,7.301,16.001,15.901c0,17.601-15.801,20.201-24.602,20.201h-24.401V143.653z M726.96,171.855h5.7
		c5.9,0,13.201-1.3,13.201-8.501c0-8.1-7.101-8.7-13.501-8.7h-5.4V171.855z M726.96,202.457h6.6c6.5,0,14.401-1.6,14.401-9.7
		c0-9.101-7.4-10.501-14.401-10.501h-6.6V202.457z"/>
	<path d="M796.459,160.755c15.301,0,27.001,10.301,27.001,27.302c0,14.801-9.9,26.602-27.001,26.602
		c-17.001,0-26.902-11.801-26.902-26.602C769.557,171.055,781.258,160.755,796.459,160.755z M796.459,204.258
		c10.3,0,13-9.201,13-17.802c0-7.9-4.2-15.301-13-15.301c-8.701,0-12.901,7.601-12.901,15.301
		C783.558,194.957,786.259,204.258,796.459,204.258z"/>
	<path d="M833.957,161.955h12.701v7h0.2c4.2-5.9,9.9-8.2,16.901-8.2c12.201,0,17.501,8.601,17.501,20.201v32.502h-13.4v-27.502
		c0-6.3-0.1-14.801-8.701-14.801c-9.701,0-11.801,10.501-11.801,17.102v25.201h-13.401V161.955z"/>
	<path d="M895.056,161.955h12.701v7h0.2c4.2-5.9,9.9-8.2,16.901-8.2c12.201,0,17.501,8.601,17.501,20.201v32.502h-13.4v-27.502
		c0-6.3-0.1-14.801-8.701-14.801c-9.701,0-11.801,10.501-11.801,17.102v25.201h-13.401V161.955z"/>
	<path d="M952.755,192.056v-11.001h26.302v11.001H952.755z"/>
	<path d="M989.455,143.653h15.101c15.001,0,32.901-0.5,32.901,18.901c0,8.201-5.5,15.001-14.4,16.201v0.2c3.801,0.3,6,4.1,7.4,7.2
		l11.201,27.302h-15.602l-8.4-21.802c-2-5.2-3.801-7.2-9.701-7.2h-4.5v29.002h-14V143.653z M1003.455,173.456h4.601
		c6.9,0,14.801-1.001,14.801-9.701c0-8.4-7.8-9.101-14.801-9.101h-4.601V173.456z"/>
	<path d="M1050.554,138.453h13.401v30.502h0.199c3.4-5,9.201-8.2,16.201-8.2c12.201,0,17.501,8.601,17.501,20.201v32.502h-13.401
		v-27.502c0-6.3-0.1-14.801-8.699-14.801c-9.701,0-11.801,10.501-11.801,17.102v25.201h-13.401V138.453z"/>
	<path d="M1152.955,210.557c-4.9,2.7-10.5,4.101-17.701,4.101c-17,0-26.901-9.801-26.901-26.702c0-14.9,7.9-27.201,23.901-27.201
		c19.102,0,24.502,13.101,24.502,31.102h-35.603c0.601,8.301,6.401,13.001,14.7,13.001c6.502,0,12.102-2.4,17.102-5.2V210.557z
		 M1143.955,182.656c-0.4-6.501-3.4-12.101-10.9-12.101c-7.501,0-11.301,5.2-11.901,12.101H1143.955z"/>
	<path d="M1167.553,139.754h13.402v12.801h-13.402V139.754z M1167.553,161.955h13.402v51.503h-13.402V161.955z"/>
	<path d="M1195.053,161.955h12.701v7h0.199c4.201-5.9,9.902-8.2,16.902-8.2c12.201,0,17.5,8.601,17.5,20.201v32.502h-13.4v-27.502
		c0-6.3-0.1-14.801-8.701-14.801c-9.699,0-11.801,10.501-11.801,17.102v25.201h-13.4V161.955z"/>
	<path d="M1252.752,192.056v-11.001h26.301v11.001H1252.752z"/>
	<path d="M1328.155,156.454c-4.4-1.899-9.301-3-14.201-3c-4.801,0-11,2.101-11,9.701c0,12.101,30.602,7,30.602,30.401
		c0,15.301-12.102,21.102-26.201,21.102c-7.602,0-11.002-1-17.902-2.7l1.301-12.601c4.801,2.6,10.301,4.3,15.801,4.3
		c5.301,0,12.4-2.7,12.4-9c0-13.301-30.602-7.801-30.602-30.902c0-15.601,12.102-21.301,24.402-21.301c6,0,11.6,0.8,16.701,2.5
		L1328.155,156.454z"/>
	<path d="M1345.352,139.754h13.4v12.801h-13.4V139.754z M1345.352,161.955h13.4v51.503h-13.4V161.955z"/>
	<path d="M1414.155,210.557c-4.9,2.7-10.502,4.101-17.701,4.101c-17.002,0-26.902-9.801-26.902-26.702
		c0-14.9,7.9-27.201,23.902-27.201c19.1,0,24.5,13.101,24.5,31.102h-35.602c0.6,8.301,6.4,13.001,14.701,13.001
		c6.5,0,12.1-2.4,17.102-5.2V210.557z M1405.153,182.656c-0.398-6.501-3.4-12.101-10.9-12.101s-11.301,5.2-11.9,12.101H1405.153z"/>
	<path d="M1475.754,161.955v46.503c0,14.001-5.6,27.201-27.201,27.201c-5.301,0-11.4-0.8-17.801-3.5l1.1-11.4
		c4.1,2.2,10.801,4.5,15.002,4.5c14.801,0,15.5-11.101,15.5-20.001h-0.199c-2.5,4.4-8.502,8.2-16.002,8.2
		c-15.201,0-21-12.201-21-26.002c0-12.4,6.4-26.701,21.801-26.701c6.801,0,12.1,2.3,15.801,8.2h0.199v-7H1475.754z
		 M1462.354,187.156c0-8.801-3.4-16.001-11.201-16.001c-9.1,0-12,8.4-12,16.301c0,7.001,3.701,15.602,11.4,15.602
		C1458.953,203.057,1462.354,195.757,1462.354,187.156z"/>
</g>
<g enable-background="new    ">
	<path d="M763.562,309.056c0,20.602-15.101,25.602-25.302,25.602s-25.301-5-25.301-25.602v-45.403h6.9v45.403
		c0,11.4,6.3,19.601,18.401,19.601c12.101,0,18.401-8.2,18.401-19.601v-45.403h6.9V309.056z"/>
	<path d="M779.458,294.456c0-3.9,0-7.901-0.4-12.001h6.1v9.101h0.2c2.1-4.601,5.9-10.301,16.501-10.301
		c12.601,0,17.401,8.4,17.401,19.602v32.602h-6.301v-31.002c0-9.601-3.4-15.801-12.101-15.801c-11.5,0-15.101,10.101-15.101,18.601
		v28.202h-6.3V294.456z"/>
	<path d="M841.358,268.854h-6.3v-8.401h6.3V268.854z M835.058,282.455h6.3v51.003h-6.3V282.455z"/>
	<path d="M874.957,333.458h-7.4l-17.301-51.003h6.9l14.101,44.103h0.2l14.801-44.103h6.6L874.957,333.458z"/>
	<path d="M935.857,331.858c-4.4,1.8-10.101,2.8-14.801,2.8c-16.901,0-23.202-11.4-23.202-26.702
		c0-15.601,8.601-26.701,21.501-26.701c14.401,0,20.301,11.601,20.301,25.302v3.2h-34.902c0,10.801,5.801,19.501,16.801,19.501
		c4.6,0,11.301-1.9,14.301-3.8V331.858z M932.757,304.356c0-8.9-3.6-17.701-13.001-17.701c-9.3,0-15.001,9.301-15.001,17.701
		H932.757z"/>
	<path d="M951.655,293.855c0-5.601,0-7.7-0.4-11.4h6.3v9.801h0.2c2.3-5.701,6.6-11.001,13.101-11.001c1.5,0,3.3,0.3,4.4,0.6v6.601
		c-1.3-0.399-3-0.6-4.6-0.6c-10.001,0-12.701,11.2-12.701,20.401v25.201h-6.3V293.855z"/>
	<path d="M981.053,326.057c3.8,1.9,8.401,3.2,13.301,3.2c6,0,11.3-3.3,11.3-9.101c0-12.101-24.501-10.2-24.501-25.002
		c0-10.101,8.201-13.9,16.601-13.9c2.701,0,8.102,0.6,12.602,2.3l-0.6,5.501c-3.301-1.5-7.801-2.4-11.301-2.4
		c-6.501,0-11.001,2-11.001,8.5c0,9.501,25.101,8.301,25.101,25.002c0,10.801-10.1,14.501-17.801,14.501c-4.9,0-9.8-0.601-14.3-2.4
		L981.053,326.057z"/>
	<path d="M1030.154,268.854h-6.3v-8.401h6.3V268.854z M1023.854,282.455h6.3v51.003h-6.3V282.455z"/>
	<path d="M1068.053,287.855h-11.601v33.002c0,4.601,1.7,8.4,6.8,8.4c2.4,0,4-0.5,5.801-1.2l0.4,5.2c-1.5,0.601-4.601,1.4-7.701,1.4
		c-11.2,0-11.6-7.7-11.6-17.001v-29.802h-10.002v-5.4h10.002v-12.301l6.3-2.2v14.501h11.601V287.855z"/>
	<path d="M1094.552,341.058c-2.4,7-6.001,14.001-13.101,14.001c-2.301,0-4.701-0.3-6.801-0.801l0.6-5.399
		c1.201,0.399,2.4,0.8,4.701,0.8c5.4,0,7.2-4.5,9.2-11.101l1.3-4.501l-18.102-51.603h6.9l14.302,42.603l-0.101-0.101h0.2
		l14.701-42.502h6.601L1094.552,341.058z"/>
	<path d="M1171.451,281.255c16.5,0,23.801,12.801,23.801,26.701c0,13.901-7.301,26.702-23.801,26.702
		c-16.502,0-23.803-12.801-23.803-26.702C1147.649,294.055,1154.949,281.255,1171.451,281.255z M1171.451,329.258
		c11,0,16.9-9.501,16.9-21.302s-5.9-21.301-16.9-21.301c-11.002,0-16.902,9.5-16.902,21.301S1160.449,329.258,1171.451,329.258z"/>
	<path d="M1211.449,287.855h-10.301v-5.4h10.301v-3.7c0-10.701,0.4-21.502,13.5-21.502c2.002,0,4.701,0.301,5.9,1l-0.398,5.501
		c-1.301-0.7-3.201-1.101-5.002-1.101c-8.6,0-7.699,9.301-7.699,15.401v4.4h11.5v5.4h-11.5v45.603h-6.301V287.855z"/>
	<path d="M1290.25,263.653h7.801l27.701,69.805h-7.201l-7.5-18.701h-35.201l-7.502,18.701h-6.699L1290.25,263.653z
		 M1293.651,270.254l-15.201,38.503h30.303L1293.651,270.254z"/>
	<path d="M1334.348,282.455h6.301l-0.4,9.301h0.199c1.602-2.801,5.502-10.501,16.303-10.501c15,0,21,11.2,21,26.701
		c0,15.102-7,26.702-21,26.702c-8.002,0-12.801-3.301-15.902-9.9h-0.199v29.701h-6.301V282.455z M1355.75,286.655
		c-11.201,0-15.102,12.001-15.102,21.301c0,9.301,3.9,21.302,15.102,21.302c12,0,15.1-11.4,15.1-21.302
		C1370.85,298.055,1367.75,286.655,1355.75,286.655z"/>
	<path d="M1389.948,282.455h6.301l-0.4,9.301h0.199c1.602-2.801,5.502-10.501,16.303-10.501c15,0,21,11.2,21,26.701
		c0,15.102-7,26.702-21,26.702c-8.002,0-12.801-3.301-15.902-9.9h-0.199v29.701h-6.301V282.455z M1411.35,286.655
		c-11.201,0-15.102,12.001-15.102,21.301c0,9.301,3.9,21.302,15.102,21.302c12,0,15.1-11.4,15.1-21.302
		C1426.449,298.055,1423.35,286.655,1411.35,286.655z"/>
	<path d="M1446.149,258.453h6.301v75.005h-6.301V258.453z"/>
	<path d="M1474.647,268.854h-6.301v-8.401h6.301V268.854z M1468.346,282.455h6.301v51.003h-6.301V282.455z"/>
	<path d="M1524.746,331.858c-4.4,1.8-10.1,2.8-14.801,2.8c-16.9,0-23.201-11.4-23.201-26.702c0-15.601,8.602-26.701,21.502-26.701
		c14.4,0,20.301,11.601,20.301,25.302v3.2h-34.902c0,10.801,5.801,19.501,16.801,19.501c4.602,0,11.301-1.9,14.301-3.8V331.858z
		 M1521.647,304.356c0-8.9-3.6-17.701-13-17.701c-9.301,0-15.002,9.301-15.002,17.701H1521.647z"/>
	<path d="M1580.948,333.458h-6.301v-8.101h-0.199c-3.4,6.501-8.602,9.301-15.902,9.301c-14,0-21-11.601-21-26.702
		c0-15.501,6-26.701,21-26.701c10.002,0,15.002,7.301,15.902,9.801h0.199v-32.603h6.301V333.458z M1559.545,329.258
		c11.201,0,15.102-12.001,15.102-21.302c0-9.3-3.9-21.301-15.102-21.301c-12,0-15.1,11.4-15.1,21.301
		C1544.446,317.857,1547.545,329.258,1559.545,329.258z"/>
	<path d="M1622.744,324.557c4.102,2.6,8.9,4.1,15.402,4.1c8.6,0,15.701-4.399,15.701-14.301c0-13.7-32.002-15.4-32.002-33.701
		c0-11.201,9.799-18.201,22.1-18.201c3.4,0,8.9,0.5,13.701,2.3l-1.1,6.3c-3.1-1.699-8-2.6-12.701-2.6c-7.199,0-15.1,3-15.1,12.001
		c0,14.001,32.002,14.101,32.002,34.502c0,14.101-12.102,19.701-22.902,19.701c-6.801,0-12.102-1.4-15.801-3L1622.744,324.557z"/>
	<path d="M1707.147,289.255c-3.4-1.5-7.5-2.6-10.9-2.6c-12.301,0-19.201,8.9-19.201,21.301c0,11.602,7,21.302,18.502,21.302
		c4,0,7.699-0.9,11.5-2.3l0.6,5.9c-4.299,1.5-8.301,1.8-13.1,1.8c-16.402,0-24.402-12.501-24.402-26.702
		c0-15.7,10.102-26.701,25.201-26.701c6.102,0,10.502,1.4,12.301,2L1707.147,289.255z"/>
	<path d="M1724.645,268.854h-6.301v-8.401h6.301V268.854z M1718.344,282.455h6.301v51.003h-6.301V282.455z"/>
	<path d="M1774.744,331.858c-4.4,1.8-10.102,2.8-14.801,2.8c-16.902,0-23.201-11.4-23.201-26.702c0-15.601,8.6-26.701,21.5-26.701
		c14.4,0,20.301,11.601,20.301,25.302v3.2h-34.9c0,10.801,5.799,19.501,16.801,19.501c4.6,0,11.301-1.9,14.301-3.8V331.858z
		 M1771.643,304.356c0-8.9-3.6-17.701-13-17.701c-9.301,0-15,9.301-15,17.701H1771.643z"/>
	<path d="M1790.541,294.456c0-3.9,0-7.901-0.4-12.001h6.102v9.101h0.199c2.102-4.601,5.9-10.301,16.502-10.301
		c12.6,0,17.4,8.4,17.4,19.602v32.602h-6.301v-31.002c0-9.601-3.4-15.801-12.1-15.801c-11.502,0-15.102,10.101-15.102,18.601v28.202
		h-6.301V294.456z"/>
	<path d="M1879.344,289.255c-3.4-1.5-7.502-2.6-10.9-2.6c-12.301,0-19.201,8.9-19.201,21.301c0,11.602,7,21.302,18.5,21.302
		c4,0,7.701-0.9,11.502-2.3l0.6,5.9c-4.301,1.5-8.301,1.8-13.102,1.8c-16.4,0-24.4-12.501-24.4-26.702
		c0-15.7,10.1-26.701,25.201-26.701c6.1,0,10.5,1.4,12.301,2L1879.344,289.255z"/>
	<path d="M1924.742,331.858c-4.4,1.8-10.102,2.8-14.801,2.8c-16.902,0-23.201-11.4-23.201-26.702c0-15.601,8.6-26.701,21.5-26.701
		c14.4,0,20.301,11.601,20.301,25.302v3.2h-34.9c0,10.801,5.799,19.501,16.801,19.501c4.6,0,11.301-1.9,14.301-3.8V331.858z
		 M1921.641,304.356c0-8.9-3.6-17.701-13-17.701c-9.301,0-15,9.301-15,17.701H1921.641z"/>
	<path d="M1936.639,326.057c3.801,1.9,8.4,3.2,13.301,3.2c6.002,0,11.301-3.3,11.301-9.101c0-12.101-24.5-10.2-24.5-25.002
		c0-10.101,8.199-13.9,16.6-13.9c2.701,0,8.102,0.6,12.602,2.3l-0.6,5.501c-3.301-1.5-7.801-2.4-11.301-2.4
		c-6.5,0-11.002,2-11.002,8.5c0,9.501,25.102,8.301,25.102,25.002c0,10.801-10.1,14.501-17.801,14.501
		c-4.9,0-9.801-0.601-14.301-2.4L1936.639,326.057z"/>
</g>
<path fill="#009EE0" d="M105.254,2C47.124,2,0,49.124,0,107.255s47.124,105.254,105.254,105.254
	c58.131,0,105.255-47.123,105.255-105.254C210.51,49.124,163.385,2,105.254,2z M105.644,168.572
	c-34.305,0-62.115-27.81-62.115-62.115c0-34.305,27.811-62.115,62.115-62.115c34.306,0,62.115,27.811,62.115,62.115
	C167.759,140.762,139.949,168.572,105.644,168.572z"/>
<circle fill="none" cx="105.644" cy="106.457" r="62.115"/>
</svg>
