<svg xmlns="http://www.w3.org/2000/svg" xmlns:xlink="http://www.w3.org/1999/xlink" width="860" height="580"><g transform="translate(-220 -12)"><path d="M680 512h160v60H680z" stroke="#000" stroke-width="2" fill="#fcc438"/><use xlink:href="#a" transform="matrix(1,0,0,1,685,517) translate(47.55 28.6)"/><path d="M460 512h160v60H460z" stroke="#000" stroke-width="2" fill="#fcc438"/><use xlink:href="#b" transform="matrix(1,0,0,1,465,517) translate(16.549999999999997 28.6)"/><use xlink:href="#c" transform="matrix(1,0,0,1,465,517) translate(66.5 28.6)"/><path d="M240 512h160v60H240z" stroke="#000" stroke-width="2" fill="#fcc438"/><use xlink:href="#d" transform="matrix(1,0,0,1,245,517) translate(43.074999999999996 28.6)"/><path d="M900 512h160v60H900z" stroke="#000" stroke-width="2" fill="#fcc438"/><use xlink:href="#e" transform="matrix(1,0,0,1,905,517) translate(58.55 28.6)"/><path d="M240 32h820v60H240z" stroke="#000" stroke-width="2" fill="#a3d977"/><use xlink:href="#f" transform="matrix(1,0,0,1,245,37) translate(344.175 28.6)"/><use xlink:href="#g" transform="matrix(1,0,0,1,245,37) translate(388.07500000000005 28.6)"/><path d="M680 272h160v60H680z" stroke="#000" stroke-width="2" fill="#99d2f2"/><use xlink:href="#h" transform="matrix(1,0,0,1,685,277) translate(19.049999999999997 28.6)"/><use xlink:href="#i" transform="matrix(1,0,0,1,685,277) translate(61.05 28.6)"/><path d="M680 152h160v60H680z" stroke="#000" stroke-width="2" fill="#99d2f2"/><use xlink:href="#j" transform="matrix(1,0,0,1,685,157) translate(11.924999999999997 28.6)"/><use xlink:href="#k" transform="matrix(1,0,0,1,685,157) translate(57.925 28.6)"/><path d="M900 392h160v60H900z" stroke="#000" stroke-width="2" fill="#99d2f2"/><use xlink:href="#l" transform="matrix(1,0,0,1,905,397) translate(24.099999999999994 28.6)"/><path d="M460 272h160v60H460z" stroke="#000" stroke-width="2" fill="#99d2f2"/><use xlink:href="#m" transform="matrix(1,0,0,1,465,277) translate(57.525 28.6)"/><path d="M460 392h160v60H460z" stroke="#000" stroke-width="2" fill="#99d2f2"/><use xlink:href="#n" transform="matrix(1,0,0,1,465,397) translate(27.574999999999996 28.6)"/><path d="M680 392h160v60H680z" stroke="#000" stroke-width="2" fill="#99d2f2"/><use xlink:href="#h" transform="matrix(1,0,0,1,685,397) translate(18.525 28.6)"/><use xlink:href="#o" transform="matrix(1,0,0,1,685,397) translate(60.525 28.6)"/><path d="M240 392h160v60H240z" stroke="#000" stroke-width="2" fill="#99d2f2"/><use xlink:href="#p" transform="matrix(1,0,0,1,245,397) translate(26.125 17.799999999999997)"/><use xlink:href="#q" transform="matrix(1,0,0,1,245,397) translate(84.92500000000001 17.799999999999997)"/><use xlink:href="#r" transform="matrix(1,0,0,1,245,397) translate(37.05 39.4)"/><path d="M760 93v58" stroke="#000" stroke-width="2" fill="none"/><path d="M761 93h-2v-1h2zM760 151l-4.64-14.27h9.28z"/><path d="M760.73 152h-1.46L754 135.73h12zm-4-14.27l3.27 10.03 3.26-10.03z"/><path fill="#fff" d="M715.23 105.8h89.56v21.6h-89.57z"/><use xlink:href="#s" transform="matrix(1,0,0,1,715.225,105.79322033898306) translate(0 14.4)"/><path d="M760 212v59" stroke="#000" stroke-width="2" fill="none"/><path d="M760 271l-4.64-14.27h9.28z"/><path d="M760.73 272h-1.46L754 255.73h12zm-4-14.27l3.27 10.03 3.26-10.03z"/><path fill="#fff" d="M739.5 230.7h41v21.6h-41z"/><use xlink:href="#t" transform="matrix(1,0,0,1,739.5,230.7) translate(0 14.4)"/><path d="M760 332v59" stroke="#000" stroke-width="2" fill="none"/><path d="M760 391l-4.64-14.27h9.28z"/><path d="M760.73 392h-1.46L754 375.73h12zm-4-14.27l3.27 10.03 3.26-10.03z"/><path fill="#fff" d="M741.5 354.53h37v21.6h-37z"/><use xlink:href="#u" transform="matrix(1,0,0,1,741.5,354.5333333333333) translate(0 14.4)"/><path d="M760 452v59" stroke="#000" stroke-width="2" fill="none"/><path d="M760 511l-4.64-14.27h9.28z"/><path d="M760.73 512h-1.46L754 495.73h12zm-4-14.27l3.27 10.03 3.26-10.03z"/><path fill="#fff" d="M688.63 470.7H831.4v21.6H688.62z"/><use xlink:href="#v" transform="matrix(1,0,0,1,688.625,470.7) translate(0 14.4)"/><use xlink:href="#w" transform="matrix(1,0,0,1,688.625,470.7) translate(50.900000000000006 14.4)"/><path d="M620 302h59" stroke="#000" stroke-width="2" fill="none"/><path d="M679 302l-14.27 4.64v-9.28z"/><path d="M680 301.27v1.46L663.73 308v-12zm-14.27 4l10.03-3.27-10.03-3.26z"/><path d="M505.33 511v-58" stroke="#000" stroke-width="2" fill="none"/><path d="M506.33 512h-2v-1h2zM509.97 467.27h-9.27l4.63-14.27z"/><path d="M511.35 468.27h-12.03l5.3-16.27h1.44zm-9.28-2h6.52l-3.27-10.03z"/><path d="M460 542h-30V314.67h29" stroke="#000" stroke-width="2" fill="none"/><path d="M459 314.67l-14.27 4.63v-9.27z"/><path d="M460 313.94v1.45l-16.27 5.28v-12.03zm-14.27 4l10.03-3.27-10.03-3.26z"/><path d="M621 401.33h58" stroke="#000" stroke-width="2" fill="none"/><path d="M621 402.33h-1v-2h1zM679 401.33l-14.27 4.64v-9.27z"/><path d="M680 400.6v1.46l-16.27 5.3V395.3zm-14.27 4l10.03-3.27-10.03-3.26z"/><path d="M320 512v-59" stroke="#000" stroke-width="2" fill="none"/><path d="M324.64 467.27h-9.28L320 453z"/><path d="M326 468.27h-12l5.27-16.27h1.46zm-9.26-2h6.52L320 456.24z"/><path d="M980 452v59" stroke="#000" stroke-width="2" fill="none"/><path d="M980 511l-4.64-14.27h9.28z"/><path d="M980.73 512h-1.46L974 495.73h12zm-4-14.27l3.27 10.03 3.26-10.03z"/><path d="M320 392V286.67h139" stroke="#000" stroke-width="2" fill="none"/><path d="M459 286.67l-14.27 4.63v-9.27z"/><path d="M460 285.94v1.45l-16.27 5.28v-12.03zm-14.27 4l10.03-3.27-10.03-3.26z"/><path d="M540 332v59" stroke="#000" stroke-width="2" fill="none"/><path d="M540 391l-4.64-14.27h9.28z"/><path d="M540.73 392h-1.46L534 375.73h12zm-4-14.27l3.27 10.03 3.26-10.03z"/><path d="M573.33 511v-31H659v-44h20" stroke="#000" stroke-width="2" fill="none"/><path d="M574.33 512h-2v-1h2zM679 436l-14.27 4.64v-9.28z"/><path d="M680 435.27v1.46L663.73 442v-12zm-14.27 4l10.03-3.27-10.03-3.26z"/><path d="M600 391v-29h96v-29" stroke="#000" stroke-width="2" fill="none"/><path d="M601 392h-2v-1h2zM700.64 347.27h-9.28L696 333z"/><path d="M702 348.27h-12l5.27-16.27h1.46zm-9.26-2h6.52L696 336.24z"/><path d="M460 152h160v60H460z" stroke="#000" stroke-width="2" fill="#99d2f2"/><use xlink:href="#x" transform="matrix(1,0,0,1,465,157) translate(27.099999999999994 28.6)"/><use xlink:href="#y" transform="matrix(1,0,0,1,465,157) translate(67.05 28.6)"/><path d="M540 212v59" stroke="#000" stroke-width="2" fill="none"/><path d="M540 271l-4.64-14.27h9.28z"/><path d="M540.73 272h-1.46L534 255.73h12zm-4-14.27l3.27 10.03 3.26-10.03z"/><path d="M540 93v59" stroke="#000" stroke-width="2" fill="none"/><path d="M541 93h-2v-1h2zM540 152l-4.64-14.27h9.28z"/><path d="M541.05 152h-2.1L534 136.73h12zm-4.3-13.27l3.25 10.03 3.26-10.03z"/><path d="M981.33 93v298" stroke="#000" stroke-width="2" fill="none"/><path d="M982.33 93h-2v-1h2zM981.33 391l-4.63-14.27h9.27z"/><path d="M982.06 392h-1.45l-5.28-16.27h12.03zm-4-14.27l3.27 10.03 3.26-10.03z"/><defs><path d="M240 0l2-218c-23 76-54 145-80 218h-23L58-218 59 0H30v-248h44l77 211c21-75 51-140 76-211h43V0h-30" id="z"/><path d="M100-194c62-1 85 37 85 99 1 63-27 99-86 99S16-35 15-95c0-66 28-99 85-99zM99-20c44 1 53-31 53-75 0-43-8-75-51-75s-53 32-53 75 10 74 51 75" id="A"/><path d="M59-47c-2 24 18 29 38 22v24C64 9 27 4 27-40v-127H5v-23h24l9-43h21v43h35v23H59v120" id="B"/><path d="M114-163C36-179 61-72 57 0H25l-1-190h30c1 12-1 29 2 39 6-27 23-49 58-41v29" id="C"/><path d="M135-143c-3-34-86-38-87 0 15 53 115 12 119 90S17 21 10-45l28-5c4 36 97 45 98 0-10-56-113-15-118-90-4-57 82-63 122-42 12 7 21 19 24 35" id="D"/><g id="a"><use transform="matrix(0.05,0,0,0.05,0,0)" xlink:href="#z"/><use transform="matrix(0.05,0,0,0.05,14.950000000000001,0)" xlink:href="#A"/><use transform="matrix(0.05,0,0,0.05,24.950000000000003,0)" xlink:href="#B"/><use transform="matrix(0.05,0,0,0.05,29.950000000000003,0)" xlink:href="#A"/><use transform="matrix(0.05,0,0,0.05,39.95,0)" xlink:href="#C"/><use transform="matrix(0.05,0,0,0.05,45.900000000000006,0)" xlink:href="#D"/></g><path d="M30 0v-248h33v221h125V0H30" id="E"/><path d="M141-36C126-15 110 5 73 4 37 3 15-17 15-53c-1-64 63-63 125-63 3-35-9-54-41-54-24 1-41 7-42 31l-33-3c5-37 33-52 76-52 45 0 72 20 72 64v82c-1 20 7 32 28 27v20c-31 9-61-2-59-35zM48-53c0 20 12 33 32 33 41-3 63-29 60-74-43 2-92-5-92 41" id="F"/><path d="M100-194c63 0 86 42 84 106H49c0 40 14 67 53 68 26 1 43-12 49-29l28 8c-11 28-37 45-77 45C44 4 14-33 15-96c1-61 26-98 85-98zm52 81c6-60-76-77-97-28-3 7-6 17-6 28h103" id="G"/><g id="b"><use transform="matrix(0.05,0,0,0.05,0,0)" xlink:href="#E"/><use transform="matrix(0.05,0,0,0.05,10,0)" xlink:href="#F"/><use transform="matrix(0.05,0,0,0.05,20,0)" xlink:href="#D"/><use transform="matrix(0.05,0,0,0.05,29,0)" xlink:href="#G"/><use transform="matrix(0.05,0,0,0.05,39,0)" xlink:href="#C"/></g><path d="M185-189c-5-48-123-54-124 2 14 75 158 14 163 119 3 78-121 87-175 55-17-10-28-26-33-46l33-7c5 56 141 63 141-1 0-78-155-14-162-118-5-82 145-84 179-34 5 7 8 16 11 25" id="H"/><path d="M96-169c-40 0-48 33-48 73s9 75 48 75c24 0 41-14 43-38l32 2c-6 37-31 61-74 61-59 0-76-41-82-99-10-93 101-131 147-64 4 7 5 14 7 22l-32 3c-4-21-16-35-41-35" id="I"/><path d="M117-194c89-4 53 116 60 194h-32v-121c0-31-8-49-39-48C34-167 62-67 57 0H25l-1-190h30c1 10-1 24 2 32 11-22 29-35 61-36" id="J"/><g id="c"><use transform="matrix(0.05,0,0,0.05,0,0)" xlink:href="#H"/><use transform="matrix(0.05,0,0,0.05,12,0)" xlink:href="#I"/><use transform="matrix(0.05,0,0,0.05,21,0)" xlink:href="#F"/><use transform="matrix(0.05,0,0,0.05,31,0)" xlink:href="#J"/><use transform="matrix(0.05,0,0,0.05,41,0)" xlink:href="#J"/><use transform="matrix(0.05,0,0,0.05,51,0)" xlink:href="#G"/><use transform="matrix(0.05,0,0,0.05,61,0)" xlink:href="#C"/></g><path d="M212-179c-10-28-35-45-73-45-59 0-87 40-87 99 0 60 29 101 89 101 43 0 62-24 78-52l27 14C228-24 195 4 139 4 59 4 22-46 18-125c-6-104 99-153 187-111 19 9 31 26 39 46" id="K"/><path d="M210-169c-67 3-38 105-44 169h-31v-121c0-29-5-50-35-48C34-165 62-65 56 0H25l-1-190h30c1 10-1 24 2 32 10-44 99-50 107 0 11-21 27-35 58-36 85-2 47 119 55 194h-31v-121c0-29-5-49-35-48" id="L"/><g id="d"><use transform="matrix(0.05,0,0,0.05,0,0)" xlink:href="#K"/><use transform="matrix(0.05,0,0,0.05,12.950000000000001,0)" xlink:href="#F"/><use transform="matrix(0.05,0,0,0.05,22.950000000000003,0)" xlink:href="#L"/><use transform="matrix(0.05,0,0,0.05,37.900000000000006,0)" xlink:href="#G"/><use transform="matrix(0.05,0,0,0.05,47.900000000000006,0)" xlink:href="#C"/><use transform="matrix(0.05,0,0,0.05,53.85,0)" xlink:href="#F"/></g><path d="M205 0l-28-72H64L36 0H1l101-248h38L239 0h-34zm-38-99l-47-123c-12 45-31 82-46 123h93" id="M"/><g id="e"><use transform="matrix(0.05,0,0,0.05,0,0)" xlink:href="#M"/><use transform="matrix(0.05,0,0,0.05,12,0)" xlink:href="#C"/><use transform="matrix(0.05,0,0,0.05,17.95,0)" xlink:href="#L"/></g><path d="M24-231v-30h32v30H24zM24 0v-190h32V0H24" id="N"/><g id="f"><use transform="matrix(0.05,0,0,0.05,0,0)" xlink:href="#z"/><use transform="matrix(0.05,0,0,0.05,14.950000000000001,0)" xlink:href="#F"/><use transform="matrix(0.05,0,0,0.05,24.950000000000003,0)" xlink:href="#N"/><use transform="matrix(0.05,0,0,0.05,28.900000000000002,0)" xlink:href="#J"/></g><path d="M24 0v-261h32V0H24" id="O"/><g id="g"><use transform="matrix(0.05,0,0,0.05,0,0)" xlink:href="#K"/><use transform="matrix(0.05,0,0,0.05,12.950000000000001,0)" xlink:href="#A"/><use transform="matrix(0.05,0,0,0.05,22.950000000000003,0)" xlink:href="#J"/><use transform="matrix(0.05,0,0,0.05,32.95,0)" xlink:href="#B"/><use transform="matrix(0.05,0,0,0.05,37.95,0)" xlink:href="#C"/><use transform="matrix(0.05,0,0,0.05,43.900000000000006,0)" xlink:href="#A"/><use transform="matrix(0.05,0,0,0.05,53.900000000000006,0)" xlink:href="#O"/><use transform="matrix(0.05,0,0,0.05,57.85,0)" xlink:href="#O"/><use transform="matrix(0.05,0,0,0.05,61.80000000000001,0)" xlink:href="#G"/><use transform="matrix(0.05,0,0,0.05,71.80000000000001,0)" xlink:href="#C"/></g><path d="M30-248c87 1 191-15 191 75 0 78-77 80-158 76V0H30v-248zm33 125c57 0 124 11 124-50 0-59-68-47-124-48v98" id="P"/><path d="M106-169C34-169 62-67 57 0H25v-261h32l-1 103c12-21 28-36 61-36 89 0 53 116 60 194h-32v-121c2-32-8-49-39-48" id="Q"/><g id="h"><use transform="matrix(0.05,0,0,0.05,0,0)" xlink:href="#P"/><use transform="matrix(0.05,0,0,0.05,12,0)" xlink:href="#F"/><use transform="matrix(0.05,0,0,0.05,22,0)" xlink:href="#B"/><use transform="matrix(0.05,0,0,0.05,27,0)" xlink:href="#Q"/></g><path d="M177-190C167-65 218 103 67 71c-23-6-38-20-44-43l32-5c15 47 100 32 89-28v-30C133-14 115 1 83 1 29 1 15-40 15-95c0-56 16-97 71-98 29-1 48 16 59 35 1-10 0-23 2-32h30zM94-22c36 0 50-32 50-73 0-42-14-75-50-75-39 0-46 34-46 75s6 73 46 73" id="R"/><g id="i"><use transform="matrix(0.05,0,0,0.05,0,0)" xlink:href="#P"/><use transform="matrix(0.05,0,0,0.05,12,0)" xlink:href="#O"/><use transform="matrix(0.05,0,0,0.05,15.949999999999998,0)" xlink:href="#F"/><use transform="matrix(0.05,0,0,0.05,25.950000000000003,0)" xlink:href="#J"/><use transform="matrix(0.05,0,0,0.05,35.95,0)" xlink:href="#J"/><use transform="matrix(0.05,0,0,0.05,45.95,0)" xlink:href="#N"/><use transform="matrix(0.05,0,0,0.05,49.900000000000006,0)" xlink:href="#J"/><use transform="matrix(0.05,0,0,0.05,59.900000000000006,0)" xlink:href="#R"/></g><g id="j"><use transform="matrix(0.05,0,0,0.05,0,0)" xlink:href="#P"/><use transform="matrix(0.05,0,0,0.05,12,0)" xlink:href="#A"/><use transform="matrix(0.05,0,0,0.05,22,0)" xlink:href="#D"/><use transform="matrix(0.05,0,0,0.05,31,0)" xlink:href="#G"/></g><path d="M127-220V0H93v-220H8v-28h204v28h-85" id="S"/><g id="k"><use transform="matrix(0.05,0,0,0.05,0,0)" xlink:href="#S"/><use transform="matrix(0.05,0,0,0.05,10.3,0)" xlink:href="#C"/><use transform="matrix(0.05,0,0,0.05,16.25,0)" xlink:href="#F"/><use transform="matrix(0.05,0,0,0.05,26.25,0)" xlink:href="#J"/><use transform="matrix(0.05,0,0,0.05,36.25,0)" xlink:href="#D"/><use transform="matrix(0.05,0,0,0.05,45.25,0)" xlink:href="#O"/><use transform="matrix(0.05,0,0,0.05,49.2,0)" xlink:href="#F"/><use transform="matrix(0.05,0,0,0.05,59.2,0)" xlink:href="#B"/><use transform="matrix(0.05,0,0,0.05,64.2,0)" xlink:href="#A"/><use transform="matrix(0.05,0,0,0.05,74.2,0)" xlink:href="#C"/></g><path d="M115-194c55 1 70 41 70 98S169 2 115 4C84 4 66-9 55-30l1 105H24l-1-265h31l2 30c10-21 28-34 59-34zm-8 174c40 0 45-34 45-75s-6-73-45-74c-42 0-51 32-51 76 0 43 10 73 51 73" id="T"/><path d="M84 4C-5 8 30-112 23-190h32v120c0 31 7 50 39 49 72-2 45-101 50-169h31l1 190h-30c-1-10 1-25-2-33-11 22-28 36-60 37" id="U"/><g id="l"><use transform="matrix(0.05,0,0,0.05,0,0)" xlink:href="#z"/><use transform="matrix(0.05,0,0,0.05,14.950000000000001,0)" xlink:href="#F"/><use transform="matrix(0.05,0,0,0.05,24.950000000000003,0)" xlink:href="#J"/><use transform="matrix(0.05,0,0,0.05,34.95,0)" xlink:href="#N"/><use transform="matrix(0.05,0,0,0.05,38.900000000000006,0)" xlink:href="#T"/><use transform="matrix(0.05,0,0,0.05,48.900000000000006,0)" xlink:href="#U"/><use transform="matrix(0.05,0,0,0.05,58.900000000000006,0)" xlink:href="#O"/><use transform="matrix(0.05,0,0,0.05,62.85,0)" xlink:href="#F"/><use transform="matrix(0.05,0,0,0.05,72.85000000000001,0)" xlink:href="#B"/><use transform="matrix(0.05,0,0,0.05,77.85000000000001,0)" xlink:href="#N"/><use transform="matrix(0.05,0,0,0.05,81.80000000000001,0)" xlink:href="#A"/><use transform="matrix(0.05,0,0,0.05,91.80000000000001,0)" xlink:href="#J"/></g><g id="m"><use transform="matrix(0.05,0,0,0.05,0,0)" xlink:href="#z"/><use transform="matrix(0.05,0,0,0.05,14.950000000000001,0)" xlink:href="#F"/><use transform="matrix(0.05,0,0,0.05,24.950000000000003,0)" xlink:href="#T"/></g><path d="M9 0v-24l116-142H16v-24h144v24L44-24h123V0H9" id="V"/><g id="n"><use transform="matrix(0.05,0,0,0.05,0,0)" xlink:href="#E"/><use transform="matrix(0.05,0,0,0.05,10,0)" xlink:href="#A"/><use transform="matrix(0.05,0,0,0.05,20,0)" xlink:href="#I"/><use transform="matrix(0.05,0,0,0.05,29,0)" xlink:href="#F"/><use transform="matrix(0.05,0,0,0.05,39,0)" xlink:href="#O"/><use transform="matrix(0.05,0,0,0.05,42.95,0)" xlink:href="#N"/><use transform="matrix(0.05,0,0,0.05,46.900000000000006,0)" xlink:href="#V"/><use transform="matrix(0.05,0,0,0.05,55.900000000000006,0)" xlink:href="#F"/><use transform="matrix(0.05,0,0,0.05,65.9,0)" xlink:href="#B"/><use transform="matrix(0.05,0,0,0.05,70.9,0)" xlink:href="#N"/><use transform="matrix(0.05,0,0,0.05,74.85000000000001,0)" xlink:href="#A"/><use transform="matrix(0.05,0,0,0.05,84.85000000000001,0)" xlink:href="#J"/></g><path d="M30 0v-248h187v28H63v79h144v27H63v87h162V0H30" id="W"/><path d="M141 0L90-78 38 0H4l68-98-65-92h35l48 74 47-74h35l-64 92 68 98h-35" id="X"/><g id="o"><use transform="matrix(0.05,0,0,0.05,0,0)" xlink:href="#W"/><use transform="matrix(0.05,0,0,0.05,12,0)" xlink:href="#X"/><use transform="matrix(0.05,0,0,0.05,21,0)" xlink:href="#G"/><use transform="matrix(0.05,0,0,0.05,31,0)" xlink:href="#I"/><use transform="matrix(0.05,0,0,0.05,40,0)" xlink:href="#U"/><use transform="matrix(0.05,0,0,0.05,50,0)" xlink:href="#B"/><use transform="matrix(0.05,0,0,0.05,55,0)" xlink:href="#A"/><use transform="matrix(0.05,0,0,0.05,65,0)" xlink:href="#C"/></g><path d="M160-131c35 5 61 23 61 61C221 17 115-2 30 0v-248c76 3 177-17 177 60 0 33-19 50-47 57zm-97-11c50-1 110 9 110-42 0-47-63-36-110-37v79zm0 115c55-2 124 14 124-45 0-56-70-42-124-44v89" id="Y"/><g id="p"><use transform="matrix(0.05,0,0,0.05,0,0)" xlink:href="#Y"/><use transform="matrix(0.05,0,0,0.05,12,0)" xlink:href="#F"/><use transform="matrix(0.05,0,0,0.05,22,0)" xlink:href="#C"/><use transform="matrix(0.05,0,0,0.05,27.950000000000003,0)" xlink:href="#C"/><use transform="matrix(0.05,0,0,0.05,33.9,0)" xlink:href="#N"/><use transform="matrix(0.05,0,0,0.05,37.85,0)" xlink:href="#G"/><use transform="matrix(0.05,0,0,0.05,47.85,0)" xlink:href="#C"/></g><g id="q"><use transform="matrix(0.05,0,0,0.05,0,0)" xlink:href="#S"/><use transform="matrix(0.05,0,0,0.05,8.950000000000001,0)" xlink:href="#F"/><use transform="matrix(0.05,0,0,0.05,18.950000000000003,0)" xlink:href="#T"/><use transform="matrix(0.05,0,0,0.05,28.950000000000003,0)" xlink:href="#G"/></g><path d="M30-248c118-7 216 8 213 122C240-48 200 0 122 0H30v-248zM63-27c89 8 146-16 146-99s-60-101-146-95v194" id="Z"/><g id="r"><use transform="matrix(0.05,0,0,0.05,0,0)" xlink:href="#Z"/><use transform="matrix(0.05,0,0,0.05,12.950000000000001,0)" xlink:href="#G"/><use transform="matrix(0.05,0,0,0.05,22.950000000000003,0)" xlink:href="#B"/><use transform="matrix(0.05,0,0,0.05,27.950000000000003,0)" xlink:href="#G"/><use transform="matrix(0.05,0,0,0.05,37.95,0)" xlink:href="#I"/><use transform="matrix(0.05,0,0,0.05,46.95,0)" xlink:href="#B"/><use transform="matrix(0.05,0,0,0.05,51.95,0)" xlink:href="#N"/><use transform="matrix(0.05,0,0,0.05,55.900000000000006,0)" xlink:href="#A"/><use transform="matrix(0.05,0,0,0.05,65.9,0)" xlink:href="#J"/></g><path d="M266 0h-40l-56-210L115 0H75L2-248h35L96-30l15-64 43-154h32l59 218 59-218h35" id="aa"/><path d="M143 0L79-87 56-68V0H24v-261h32v163l83-92h37l-77 82L181 0h-38" id="ab"/><g id="s"><use transform="matrix(0.05,0,0,0.05,0,0)" xlink:href="#aa"/><use transform="matrix(0.05,0,0,0.05,16.599999999999998,0)" xlink:href="#A"/><use transform="matrix(0.05,0,0,0.05,26.599999999999994,0)" xlink:href="#C"/><use transform="matrix(0.05,0,0,0.05,32.55,0)" xlink:href="#ab"/><use transform="matrix(0.05,0,0,0.05,41.55,0)" xlink:href="#D"/><use transform="matrix(0.05,0,0,0.05,50.55,0)" xlink:href="#T"/><use transform="matrix(0.05,0,0,0.05,60.54999999999999,0)" xlink:href="#F"/><use transform="matrix(0.05,0,0,0.05,70.55,0)" xlink:href="#I"/><use transform="matrix(0.05,0,0,0.05,79.55,0)" xlink:href="#G"/></g><g id="t"><use transform="matrix(0.05,0,0,0.05,0,0)" xlink:href="#P"/><use transform="matrix(0.05,0,0,0.05,12,0)" xlink:href="#A"/><use transform="matrix(0.05,0,0,0.05,22,0)" xlink:href="#D"/><use transform="matrix(0.05,0,0,0.05,31,0)" xlink:href="#G"/></g><g id="u"><use transform="matrix(0.05,0,0,0.05,0,0)" xlink:href="#P"/><use transform="matrix(0.05,0,0,0.05,12,0)" xlink:href="#F"/><use transform="matrix(0.05,0,0,0.05,22,0)" xlink:href="#B"/><use transform="matrix(0.05,0,0,0.05,27,0)" xlink:href="#Q"/></g><g id="v"><use transform="matrix(0.05,0,0,0.05,0,0)" xlink:href="#z"/><use transform="matrix(0.05,0,0,0.05,14.950000000000001,0)" xlink:href="#A"/><use transform="matrix(0.05,0,0,0.05,24.950000000000003,0)" xlink:href="#B"/><use transform="matrix(0.05,0,0,0.05,29.950000000000003,0)" xlink:href="#A"/><use transform="matrix(0.05,0,0,0.05,39.95,0)" xlink:href="#C"/></g><path d="M85-194c31 0 48 13 60 33l-1-100h32l1 261h-30c-2-10 0-23-3-31C134-8 116 4 85 4 32 4 16-35 15-94c0-66 23-100 70-100zm9 24c-40 0-46 34-46 75 0 40 6 74 45 74 42 0 51-32 51-76 0-42-9-74-50-73" id="ac"/><g id="w"><use transform="matrix(0.05,0,0,0.05,0,0)" xlink:href="#K"/><use transform="matrix(0.05,0,0,0.05,12.950000000000001,0)" xlink:href="#A"/><use transform="matrix(0.05,0,0,0.05,22.950000000000003,0)" xlink:href="#L"/><use transform="matrix(0.05,0,0,0.05,37.900000000000006,0)" xlink:href="#L"/><use transform="matrix(0.05,0,0,0.05,52.85,0)" xlink:href="#F"/><use transform="matrix(0.05,0,0,0.05,62.85,0)" xlink:href="#J"/><use transform="matrix(0.05,0,0,0.05,72.85000000000001,0)" xlink:href="#ac"/><use transform="matrix(0.05,0,0,0.05,82.85000000000001,0)" xlink:href="#D"/></g><g id="x"><use transform="matrix(0.05,0,0,0.05,0,0)" xlink:href="#z"/><use transform="matrix(0.05,0,0,0.05,14.950000000000001,0)" xlink:href="#F"/><use transform="matrix(0.05,0,0,0.05,24.950000000000003,0)" xlink:href="#T"/></g><g id="y"><use transform="matrix(0.05,0,0,0.05,0,0)" xlink:href="#Y"/><use transform="matrix(0.05,0,0,0.05,12,0)" xlink:href="#U"/><use transform="matrix(0.05,0,0,0.05,22,0)" xlink:href="#N"/><use transform="matrix(0.05,0,0,0.05,25.950000000000003,0)" xlink:href="#O"/><use transform="matrix(0.05,0,0,0.05,29.899999999999995,0)" xlink:href="#ac"/><use transform="matrix(0.05,0,0,0.05,39.9,0)" xlink:href="#G"/><use transform="matrix(0.05,0,0,0.05,49.9,0)" xlink:href="#C"/></g></defs></g></svg>