<svg xmlns="http://www.w3.org/2000/svg" xmlns:xlink="http://www.w3.org/1999/xlink" width="1060" height="440"><g transform="translate(-100 -40)"><path d="M120 60h260v160H120z" stroke="#000" stroke-width="2" fill="#fff"/><path d="M120 98h260m-260 82h260" stroke="#000" stroke-width="2" fill="none"/><use xlink:href="#a" transform="matrix(1,0,0,1,128,60) translate(90.05 22.6)"/><use xlink:href="#b" transform="matrix(1,0,0,1,132,105.6) translate(0 26.299999999999997)"/><use xlink:href="#c" transform="matrix(1,0,0,1,132,105.6) translate(14 26.299999999999997)"/><use xlink:href="#d" transform="matrix(1,0,0,1,132,105.6) translate(24 26.299999999999997)"/><use xlink:href="#e" transform="matrix(1,0,0,1,132,105.6) translate(0 47.9)"/><use xlink:href="#c" transform="matrix(1,0,0,1,132,105.6) translate(14 47.9)"/><use xlink:href="#f" transform="matrix(1,0,0,1,132,105.6) translate(24 47.9)"/><use xlink:href="#g" transform="matrix(1,0,0,1,132,188.12121212121212) translate(0 15.6)"/><use xlink:href="#h" transform="matrix(1,0,0,1,132,188.12121212121212) translate(88.85000000000001 15.6)"/><path d="M120 300h260v160H120z" stroke="#000" stroke-width="2" fill="#fff"/><path d="M120 338h260m-260 67h260" stroke="#000" stroke-width="2" fill="none"/><use xlink:href="#i" transform="matrix(1,0,0,1,128,300) translate(101.5 22.6)"/><use xlink:href="#j" transform="matrix(1,0,0,1,132,345.6) translate(0 29.6)"/><use xlink:href="#k" transform="matrix(1,0,0,1,132,345.6) translate(45 29.6)"/><use xlink:href="#l" transform="matrix(1,0,0,1,132,345.6) translate(55 29.6)"/><use xlink:href="#m" transform="matrix(1,0,0,1,132,413.0666666666667) translate(0 23.1)"/><use xlink:href="#n" transform="matrix(1,0,0,1,132,413.0666666666667) translate(65.95 23.1)"/><use xlink:href="#o" transform="matrix(1,0,0,1,132,413.0666666666667) translate(83.6 23.1)"/><path d="M250 300v-80" stroke="#000" stroke-width="2" fill="none"/><path d="M254.64 234.27h-9.28L250 220z" fill="#fff"/><path d="M256 235.27h-12l4.95-15.27h2.1zm-9.26-2h6.52L250 223.24z"/><path d="M460 300h260v160H460z" stroke="#000" stroke-width="2" fill="#fff"/><path d="M460 338h260m-260 82h260" stroke="#000" stroke-width="2" fill="none"/><use xlink:href="#p" transform="matrix(1,0,0,1,468,300) translate(77.225 22.6)"/><use xlink:href="#q" transform="matrix(1,0,0,1,472,345.6) translate(0 26.299999999999997)"/><use xlink:href="#c" transform="matrix(1,0,0,1,472,345.6) translate(44 26.299999999999997)"/><use xlink:href="#r" transform="matrix(1,0,0,1,472,345.6) translate(54 26.299999999999997)"/><use xlink:href="#s" transform="matrix(1,0,0,1,472,345.6) translate(0 47.9)"/><use xlink:href="#c" transform="matrix(1,0,0,1,472,345.6) translate(49.95 47.9)"/><use xlink:href="#t" transform="matrix(1,0,0,1,472,345.6) translate(59.95 47.9)"/><use xlink:href="#u" transform="matrix(1,0,0,1,472,428.1212121212121) translate(0 15.6)"/><path d="M460 60h260v160H460z" stroke="#000" stroke-width="2" fill="#fff"/><path d="M460 98h260m-260 52h260" stroke="#000" stroke-width="2" fill="none"/><use xlink:href="#v" transform="matrix(1,0,0,1,468,60) translate(71.57499999999999 22.6)"/><use xlink:href="#w" transform="matrix(1,0,0,1,472,105.6) translate(0 22.1)"/><use xlink:href="#c" transform="matrix(1,0,0,1,472,105.6) translate(79 22.1)"/><use xlink:href="#x" transform="matrix(1,0,0,1,472,105.6) translate(89 22.1)"/><use xlink:href="#y" transform="matrix(1,0,0,1,472,158.0121212121212) translate(0 19.799999999999997)"/><use xlink:href="#z" transform="matrix(1,0,0,1,472,158.0121212121212) translate(0 41.4)"/><path d="M380 380h80" stroke="#000" stroke-width="2" fill="none"/><path d="M460 380l-14.85 14.85L430 380l15.15-14.85z" fill="#fff"/><path d="M460 378.6v2.8l-14.84 14.86-16.6-16.26 16.6-16.26zm-28.57 1.4l13.7 13.44L458.6 380l-13.46-13.44z"/><g><use xlink:href="#A" transform="matrix(1,0,0,1,381,384) translate(0 14.4)"/></g><g><use xlink:href="#A" transform="matrix(1,0,0,1,450,354.4) translate(0 14.4)"/></g><path d="M590 300v-80" stroke="#000" stroke-width="2" fill="none"/><path d="M604.85 234.85L590 250l-14.85-15.15L590 220z" fill="#fff"/><path d="M606.26 234.84L590 251.44l-16.26-16.6L588.6 220h2.8zm-29.7.02l13.44 13.7 13.44-13.7L590 221.4z"/><g><use xlink:href="#B" transform="matrix(1,0,0,1,598,278.2) translate(0 14.4)"/></g><g><use xlink:href="#A" transform="matrix(1,0,0,1,572,220.19999999999993) translate(0 14.4)"/></g><path d="M800 60h340v400H800z" stroke="#000" stroke-width="2" fill="#fff"/><path d="M800 98h340M800 256h340" stroke="#000" stroke-width="2" fill="none"/><g><use xlink:href="#C" transform="matrix(1,0,0,1,808,60) translate(108.025 22.6)"/></g><g><use xlink:href="#D" transform="matrix(1,0,0,1,812,105.6) translate(0 53.5)"/><use xlink:href="#c" transform="matrix(1,0,0,1,812,105.6) translate(149.85000000000002 53.5)"/><use xlink:href="#E" transform="matrix(1,0,0,1,812,105.6) translate(159.85000000000002 53.5)"/><use xlink:href="#F" transform="matrix(1,0,0,1,812,105.6) translate(0 75.10000000000001)"/><use xlink:href="#G" transform="matrix(1,0,0,1,812,105.6) translate(108.85000000000001 75.10000000000001)"/><use xlink:href="#H" transform="matrix(1,0,0,1,812,105.6) translate(0 96.70000000000002)"/><use xlink:href="#I" transform="matrix(1,0,0,1,812,105.6) translate(135.85000000000002 96.70000000000002)"/></g><g><use xlink:href="#J" transform="matrix(1,0,0,1,812,263.84358068315663) translate(0 54.89999999999999)"/><use xlink:href="#K" transform="matrix(1,0,0,1,812,263.84358068315663) translate(0 76.5)"/><use xlink:href="#L" transform="matrix(1,0,0,1,812,263.84358068315663) translate(0 98.1)"/><use xlink:href="#M" transform="matrix(1,0,0,1,812,263.84358068315663) translate(0 119.70000000000002)"/><use xlink:href="#N" transform="matrix(1,0,0,1,812,263.84358068315663) translate(0 141.3)"/></g><path d="M720 140h40v120h40" stroke="#000" stroke-width="2" fill="none"/><path d="M800 260l-14.85 14.85L770 260l15.15-14.85z" fill="#fff"/><path d="M800 258.6v2.8l-14.84 14.86-16.6-16.26 16.6-16.26zm-28.57 1.4l13.7 13.44L798.6 260l-13.46-13.44z"/><g><use xlink:href="#A" transform="matrix(1,0,0,1,721,144) translate(0 14.4)"/></g><g><use xlink:href="#A" transform="matrix(1,0,0,1,789.3189333723763,234.4) translate(0 14.4)"/></g><defs><path d="M30-248c87 1 191-15 191 75 0 78-77 80-158 76V0H30v-248zm33 125c57 0 124 11 124-50 0-59-68-47-124-48v98" id="O"/><path d="M100-194c62-1 85 37 85 99 1 63-27 99-86 99S16-35 15-95c0-66 28-99 85-99zM99-20c44 1 53-31 53-75 0-43-8-75-51-75s-53 32-53 75 10 74 51 75" id="P"/><path d="M135-143c-3-34-86-38-87 0 15 53 115 12 119 90S17 21 10-45l28-5c4 36 97 45 98 0-10-56-113-15-118-90-4-57 82-63 122-42 12 7 21 19 24 35" id="Q"/><path d="M24-231v-30h32v30H24zM24 0v-190h32V0H24" id="R"/><path d="M59-47c-2 24 18 29 38 22v24C64 9 27 4 27-40v-127H5v-23h24l9-43h21v43h35v23H59v120" id="S"/><path d="M117-194c89-4 53 116 60 194h-32v-121c0-31-8-49-39-48C34-167 62-67 57 0H25l-1-190h30c1 10-1 24 2 32 11-22 29-35 61-36" id="T"/><g id="a"><use transform="matrix(0.05,0,0,0.05,0,0)" xlink:href="#O"/><use transform="matrix(0.05,0,0,0.05,12,0)" xlink:href="#P"/><use transform="matrix(0.05,0,0,0.05,22,0)" xlink:href="#Q"/><use transform="matrix(0.05,0,0,0.05,31,0)" xlink:href="#R"/><use transform="matrix(0.05,0,0,0.05,34.95,0)" xlink:href="#S"/><use transform="matrix(0.05,0,0,0.05,39.95,0)" xlink:href="#R"/><use transform="matrix(0.05,0,0,0.05,43.900000000000006,0)" xlink:href="#P"/><use transform="matrix(0.05,0,0,0.05,53.900000000000006,0)" xlink:href="#T"/></g><path d="M141 0L90-78 38 0H4l68-98-65-92h35l48 74 47-74h35l-64 92 68 98h-35" id="U"/><use transform="matrix(0.05,0,0,0.05,0,0)" xlink:href="#U" id="b"/><path d="M33-154v-36h34v36H33zM33 0v-36h34V0H33" id="V"/><use transform="matrix(0.05,0,0,0.05,0,0)" xlink:href="#V" id="c"/><path d="M101-234c-31-9-42 10-38 44h38v23H63V0H32v-167H5v-23h27c-7-52 17-82 69-68v24" id="W"/><path d="M24 0v-261h32V0H24" id="X"/><path d="M141-36C126-15 110 5 73 4 37 3 15-17 15-53c-1-64 63-63 125-63 3-35-9-54-41-54-24 1-41 7-42 31l-33-3c5-37 33-52 76-52 45 0 72 20 72 64v82c-1 20 7 32 28 27v20c-31 9-61-2-59-35zM48-53c0 20 12 33 32 33 41-3 63-29 60-74-43 2-92-5-92 41" id="Y"/><g id="d"><use transform="matrix(0.05,0,0,0.05,0,0)" xlink:href="#W"/><use transform="matrix(0.05,0,0,0.05,5,0)" xlink:href="#X"/><use transform="matrix(0.05,0,0,0.05,8.95,0)" xlink:href="#P"/><use transform="matrix(0.05,0,0,0.05,18.95,0)" xlink:href="#Y"/><use transform="matrix(0.05,0,0,0.05,28.950000000000003,0)" xlink:href="#S"/></g><path d="M179-190L93 31C79 59 56 82 12 73V49c39 6 53-20 64-50L1-190h34L92-34l54-156h33" id="Z"/><use transform="matrix(0.05,0,0,0.05,0,0)" xlink:href="#Z" id="e"/><g id="f"><use transform="matrix(0.05,0,0,0.05,0,0)" xlink:href="#W"/><use transform="matrix(0.05,0,0,0.05,5,0)" xlink:href="#X"/><use transform="matrix(0.05,0,0,0.05,8.95,0)" xlink:href="#P"/><use transform="matrix(0.05,0,0,0.05,18.95,0)" xlink:href="#Y"/><use transform="matrix(0.05,0,0,0.05,28.950000000000003,0)" xlink:href="#S"/></g><path d="M87 75C49 33 22-17 22-94c0-76 28-126 65-167h31c-38 41-64 92-64 168S80 34 118 75H87" id="aa"/><path d="M68-38c1 34 0 65-14 84H32c9-13 17-26 17-46H33v-38h35" id="ab"/><g id="g"><use transform="matrix(0.05,0,0,0.05,0,0)" xlink:href="#O"/><use transform="matrix(0.05,0,0,0.05,12,0)" xlink:href="#P"/><use transform="matrix(0.05,0,0,0.05,22,0)" xlink:href="#Q"/><use transform="matrix(0.05,0,0,0.05,31,0)" xlink:href="#R"/><use transform="matrix(0.05,0,0,0.05,34.95,0)" xlink:href="#S"/><use transform="matrix(0.05,0,0,0.05,39.95,0)" xlink:href="#R"/><use transform="matrix(0.05,0,0,0.05,43.900000000000006,0)" xlink:href="#P"/><use transform="matrix(0.05,0,0,0.05,53.900000000000006,0)" xlink:href="#T"/><use transform="matrix(0.05,0,0,0.05,63.900000000000006,0)" xlink:href="#aa"/><use transform="matrix(0.05,0,0,0.05,69.85000000000001,0)" xlink:href="#U"/><use transform="matrix(0.05,0,0,0.05,78.85000000000001,0)" xlink:href="#ab"/></g><path d="M33-261c38 41 65 92 65 168S71 34 33 75H2C39 34 66-17 66-93S39-220 2-261h31" id="ac"/><g id="h"><use transform="matrix(0.05,0,0,0.05,0,0)" xlink:href="#Z"/><use transform="matrix(0.05,0,0,0.05,9,0)" xlink:href="#ac"/></g><path d="M100-194c63 0 86 42 84 106H49c0 40 14 67 53 68 26 1 43-12 49-29l28 8c-11 28-37 45-77 45C44 4 14-33 15-96c1-61 26-98 85-98zm52 81c6-60-76-77-97-28-3 7-6 17-6 28h103" id="ad"/><g id="i"><use transform="matrix(0.05,0,0,0.05,0,0)" xlink:href="#O"/><use transform="matrix(0.05,0,0,0.05,12,0)" xlink:href="#P"/><use transform="matrix(0.05,0,0,0.05,22,0)" xlink:href="#Q"/><use transform="matrix(0.05,0,0,0.05,31,0)" xlink:href="#ad"/></g><path d="M106-169C34-169 62-67 57 0H25v-261h32l-1 103c12-21 28-36 61-36 89 0 53 116 60 194h-32v-121c2-32-8-49-39-48" id="ae"/><g id="j"><use transform="matrix(0.05,0,0,0.05,0,0)" xlink:href="#S"/><use transform="matrix(0.05,0,0,0.05,5,0)" xlink:href="#ae"/><use transform="matrix(0.05,0,0,0.05,15,0)" xlink:href="#ad"/><use transform="matrix(0.05,0,0,0.05,25,0)" xlink:href="#S"/><use transform="matrix(0.05,0,0,0.05,30,0)" xlink:href="#Y"/></g><use transform="matrix(0.05,0,0,0.05,0,0)" xlink:href="#V" id="k"/><g id="l"><use transform="matrix(0.05,0,0,0.05,0,0)" xlink:href="#W"/><use transform="matrix(0.05,0,0,0.05,5,0)" xlink:href="#X"/><use transform="matrix(0.05,0,0,0.05,8.95,0)" xlink:href="#P"/><use transform="matrix(0.05,0,0,0.05,18.95,0)" xlink:href="#Y"/><use transform="matrix(0.05,0,0,0.05,28.950000000000003,0)" xlink:href="#S"/></g><g id="m"><use transform="matrix(0.05,0,0,0.05,0,0)" xlink:href="#O"/><use transform="matrix(0.05,0,0,0.05,12,0)" xlink:href="#P"/><use transform="matrix(0.05,0,0,0.05,22,0)" xlink:href="#Q"/><use transform="matrix(0.05,0,0,0.05,31,0)" xlink:href="#ad"/><use transform="matrix(0.05,0,0,0.05,41,0)" xlink:href="#aa"/><use transform="matrix(0.05,0,0,0.05,46.95,0)" xlink:href="#U"/><use transform="matrix(0.05,0,0,0.05,55.95,0)" xlink:href="#ab"/></g><g id="n"><use transform="matrix(0.05,0,0,0.05,0,0)" xlink:href="#Z"/><use transform="matrix(0.05,0,0,0.05,7.65,0)" xlink:href="#ab"/></g><g id="o"><use transform="matrix(0.05,0,0,0.05,0,0)" xlink:href="#S"/><use transform="matrix(0.05,0,0,0.05,5,0)" xlink:href="#ae"/><use transform="matrix(0.05,0,0,0.05,15,0)" xlink:href="#ad"/><use transform="matrix(0.05,0,0,0.05,25,0)" xlink:href="#S"/><use transform="matrix(0.05,0,0,0.05,30,0)" xlink:href="#Y"/><use transform="matrix(0.05,0,0,0.05,40,0)" xlink:href="#ac"/></g><path d="M266 0h-40l-56-210L115 0H75L2-248h35L96-30l15-64 43-154h32l59 218 59-218h35" id="af"/><path d="M114-163C36-179 61-72 57 0H25l-1-190h30c1 12-1 29 2 39 6-27 23-49 58-41v29" id="ag"/><path d="M143 0L79-87 56-68V0H24v-261h32v163l83-92h37l-77 82L181 0h-38" id="ah"/><path d="M115-194c55 1 70 41 70 98S169 2 115 4C84 4 66-9 55-30l1 105H24l-1-265h31l2 30c10-21 28-34 59-34zm-8 174c40 0 45-34 45-75s-6-73-45-74c-42 0-51 32-51 76 0 43 10 73 51 73" id="ai"/><path d="M96-169c-40 0-48 33-48 73s9 75 48 75c24 0 41-14 43-38l32 2c-6 37-31 61-74 61-59 0-76-41-82-99-10-93 101-131 147-64 4 7 5 14 7 22l-32 3c-4-21-16-35-41-35" id="aj"/><g id="p"><use transform="matrix(0.05,0,0,0.05,0,0)" xlink:href="#af"/><use transform="matrix(0.05,0,0,0.05,16.599999999999998,0)" xlink:href="#P"/><use transform="matrix(0.05,0,0,0.05,26.599999999999994,0)" xlink:href="#ag"/><use transform="matrix(0.05,0,0,0.05,32.55,0)" xlink:href="#ah"/><use transform="matrix(0.05,0,0,0.05,41.55,0)" xlink:href="#Q"/><use transform="matrix(0.05,0,0,0.05,50.55,0)" xlink:href="#ai"/><use transform="matrix(0.05,0,0,0.05,60.54999999999999,0)" xlink:href="#Y"/><use transform="matrix(0.05,0,0,0.05,70.55,0)" xlink:href="#aj"/><use transform="matrix(0.05,0,0,0.05,79.55,0)" xlink:href="#ad"/></g><g id="q"><use transform="matrix(0.05,0,0,0.05,0,0)" xlink:href="#ai"/><use transform="matrix(0.05,0,0,0.05,10,0)" xlink:href="#P"/><use transform="matrix(0.05,0,0,0.05,20,0)" xlink:href="#Q"/><use transform="matrix(0.05,0,0,0.05,29,0)" xlink:href="#ad"/></g><g id="r"><use transform="matrix(0.05,0,0,0.05,0,0)" xlink:href="#O"/><use transform="matrix(0.05,0,0,0.05,12,0)" xlink:href="#P"/><use transform="matrix(0.05,0,0,0.05,22,0)" xlink:href="#Q"/><use transform="matrix(0.05,0,0,0.05,31,0)" xlink:href="#ad"/></g><path d="M210-169c-67 3-38 105-44 169h-31v-121c0-29-5-50-35-48C34-165 62-65 56 0H25l-1-190h30c1 10-1 24 2 32 10-44 99-50 107 0 11-21 27-35 58-36 85-2 47 119 55 194h-31v-121c0-29-5-49-35-48" id="ak"/><g id="s"><use transform="matrix(0.05,0,0,0.05,0,0)" xlink:href="#T"/><use transform="matrix(0.05,0,0,0.05,10,0)" xlink:href="#Y"/><use transform="matrix(0.05,0,0,0.05,20,0)" xlink:href="#ak"/><use transform="matrix(0.05,0,0,0.05,34.95,0)" xlink:href="#ad"/></g><path d="M185-189c-5-48-123-54-124 2 14 75 158 14 163 119 3 78-121 87-175 55-17-10-28-26-33-46l33-7c5 56 141 63 141-1 0-78-155-14-162-118-5-82 145-84 179-34 5 7 8 16 11 25" id="al"/><path d="M177-190C167-65 218 103 67 71c-23-6-38-20-44-43l32-5c15 47 100 32 89-28v-30C133-14 115 1 83 1 29 1 15-40 15-95c0-56 16-97 71-98 29-1 48 16 59 35 1-10 0-23 2-32h30zM94-22c36 0 50-32 50-73 0-42-14-75-50-75-39 0-46 34-46 75s6 73 46 73" id="am"/><g id="t"><use transform="matrix(0.05,0,0,0.05,0,0)" xlink:href="#al"/><use transform="matrix(0.05,0,0,0.05,12,0)" xlink:href="#S"/><use transform="matrix(0.05,0,0,0.05,17,0)" xlink:href="#ag"/><use transform="matrix(0.05,0,0,0.05,22.95,0)" xlink:href="#R"/><use transform="matrix(0.05,0,0,0.05,26.899999999999995,0)" xlink:href="#T"/><use transform="matrix(0.05,0,0,0.05,36.9,0)" xlink:href="#am"/></g><g id="u"><use transform="matrix(0.05,0,0,0.05,0,0)" xlink:href="#af"/><use transform="matrix(0.05,0,0,0.05,16.599999999999998,0)" xlink:href="#P"/><use transform="matrix(0.05,0,0,0.05,26.599999999999994,0)" xlink:href="#ag"/><use transform="matrix(0.05,0,0,0.05,32.55,0)" xlink:href="#ah"/><use transform="matrix(0.05,0,0,0.05,41.55,0)" xlink:href="#Q"/><use transform="matrix(0.05,0,0,0.05,50.55,0)" xlink:href="#ai"/><use transform="matrix(0.05,0,0,0.05,60.54999999999999,0)" xlink:href="#Y"/><use transform="matrix(0.05,0,0,0.05,70.55,0)" xlink:href="#aj"/><use transform="matrix(0.05,0,0,0.05,79.55,0)" xlink:href="#ad"/><use transform="matrix(0.05,0,0,0.05,89.55,0)" xlink:href="#aa"/><use transform="matrix(0.05,0,0,0.05,95.5,0)" xlink:href="#U"/><use transform="matrix(0.05,0,0,0.05,104.5,0)" xlink:href="#ab"/><use transform="matrix(0.05,0,0,0.05,109.5,0)" xlink:href="#Z"/><use transform="matrix(0.05,0,0,0.05,117.15,0)" xlink:href="#ab"/><use transform="matrix(0.05,0,0,0.05,122.15,0)" xlink:href="#S"/><use transform="matrix(0.05,0,0,0.05,127.15,0)" xlink:href="#ae"/><use transform="matrix(0.05,0,0,0.05,137.15,0)" xlink:href="#ad"/><use transform="matrix(0.05,0,0,0.05,147.15,0)" xlink:href="#S"/><use transform="matrix(0.05,0,0,0.05,152.15,0)" xlink:href="#Y"/><use transform="matrix(0.05,0,0,0.05,162.15,0)" xlink:href="#ab"/><use transform="matrix(0.05,0,0,0.05,167.15,0)" xlink:href="#T"/><use transform="matrix(0.05,0,0,0.05,177.15,0)" xlink:href="#Y"/><use transform="matrix(0.05,0,0,0.05,187.15,0)" xlink:href="#ak"/><use transform="matrix(0.05,0,0,0.05,202.1,0)" xlink:href="#ad"/><use transform="matrix(0.05,0,0,0.05,212.10000000000002,0)" xlink:href="#ac"/></g><path d="M30 0v-248h187v28H63v79h144v27H63v87h162V0H30" id="an"/><path d="M108 0H70L1-190h34L89-25l56-165h34" id="ao"/><g id="v"><use transform="matrix(0.05,0,0,0.05,0,0)" xlink:href="#an"/><use transform="matrix(0.05,0,0,0.05,12,0)" xlink:href="#T"/><use transform="matrix(0.05,0,0,0.05,22,0)" xlink:href="#ao"/><use transform="matrix(0.05,0,0,0.05,31,0)" xlink:href="#R"/><use transform="matrix(0.05,0,0,0.05,34.95,0)" xlink:href="#ag"/><use transform="matrix(0.05,0,0,0.05,40.900000000000006,0)" xlink:href="#P"/><use transform="matrix(0.05,0,0,0.05,50.900000000000006,0)" xlink:href="#T"/><use transform="matrix(0.05,0,0,0.05,60.900000000000006,0)" xlink:href="#ak"/><use transform="matrix(0.05,0,0,0.05,75.85000000000001,0)" xlink:href="#ad"/><use transform="matrix(0.05,0,0,0.05,85.85000000000001,0)" xlink:href="#T"/><use transform="matrix(0.05,0,0,0.05,95.85000000000001,0)" xlink:href="#S"/></g><path d="M85-194c31 0 48 13 60 33l-1-100h32l1 261h-30c-2-10 0-23-3-31C134-8 116 4 85 4 32 4 16-35 15-94c0-66 23-100 70-100zm9 24c-40 0-46 34-46 75 0 40 6 74 45 74 42 0 51-32 51-76 0-42-9-74-50-73" id="ap"/><path d="M115-194c53 0 69 39 70 98 0 66-23 100-70 100C84 3 66-7 56-30L54 0H23l1-261h32v101c10-23 28-34 59-34zm-8 174c40 0 45-34 45-75 0-40-5-75-45-74-42 0-51 32-51 76 0 43 10 73 51 73" id="aq"/><g id="w"><use transform="matrix(0.05,0,0,0.05,0,0)" xlink:href="#ap"/><use transform="matrix(0.05,0,0,0.05,10,0)" xlink:href="#Y"/><use transform="matrix(0.05,0,0,0.05,20,0)" xlink:href="#S"/><use transform="matrix(0.05,0,0,0.05,25,0)" xlink:href="#Y"/><use transform="matrix(0.05,0,0,0.05,35,0)" xlink:href="#aq"/><use transform="matrix(0.05,0,0,0.05,45,0)" xlink:href="#Y"/><use transform="matrix(0.05,0,0,0.05,55,0)" xlink:href="#Q"/><use transform="matrix(0.05,0,0,0.05,64,0)" xlink:href="#ad"/></g><g id="x"><use transform="matrix(0.05,0,0,0.05,0,0)" xlink:href="#ap"/><use transform="matrix(0.05,0,0,0.05,10,0)" xlink:href="#R"/><use transform="matrix(0.05,0,0,0.05,13.949999999999998,0)" xlink:href="#aj"/><use transform="matrix(0.05,0,0,0.05,22.95,0)" xlink:href="#S"/></g><g id="y"><use transform="matrix(0.05,0,0,0.05,0,0)" xlink:href="#an"/><use transform="matrix(0.05,0,0,0.05,12,0)" xlink:href="#T"/><use transform="matrix(0.05,0,0,0.05,22,0)" xlink:href="#ao"/><use transform="matrix(0.05,0,0,0.05,31,0)" xlink:href="#R"/><use transform="matrix(0.05,0,0,0.05,34.95,0)" xlink:href="#ag"/><use transform="matrix(0.05,0,0,0.05,40.900000000000006,0)" xlink:href="#P"/><use transform="matrix(0.05,0,0,0.05,50.900000000000006,0)" xlink:href="#T"/><use transform="matrix(0.05,0,0,0.05,60.900000000000006,0)" xlink:href="#ak"/><use transform="matrix(0.05,0,0,0.05,75.85000000000001,0)" xlink:href="#ad"/><use transform="matrix(0.05,0,0,0.05,85.85000000000001,0)" xlink:href="#T"/><use transform="matrix(0.05,0,0,0.05,95.85000000000001,0)" xlink:href="#S"/><use transform="matrix(0.05,0,0,0.05,100.85000000000001,0)" xlink:href="#aa"/><use transform="matrix(0.05,0,0,0.05,106.80000000000001,0)" xlink:href="#W"/><use transform="matrix(0.05,0,0,0.05,111.80000000000001,0)" xlink:href="#R"/><use transform="matrix(0.05,0,0,0.05,115.75,0)" xlink:href="#X"/><use transform="matrix(0.05,0,0,0.05,119.7,0)" xlink:href="#ad"/><use transform="matrix(0.05,0,0,0.05,129.70000000000002,0)" xlink:href="#T"/><use transform="matrix(0.05,0,0,0.05,139.70000000000002,0)" xlink:href="#Y"/><use transform="matrix(0.05,0,0,0.05,149.70000000000002,0)" xlink:href="#ak"/><use transform="matrix(0.05,0,0,0.05,164.65,0)" xlink:href="#ad"/><use transform="matrix(0.05,0,0,0.05,174.65,0)" xlink:href="#ac"/></g><path d="M-5 72V49h209v23H-5" id="ar"/><path d="M206 0h-36l-40-164L89 0H53L-1-190h32L70-26l43-164h34l41 164 42-164h31" id="as"/><g id="z"><use transform="matrix(0.05,0,0,0.05,0,0)" xlink:href="#am"/><use transform="matrix(0.05,0,0,0.05,10,0)" xlink:href="#ad"/><use transform="matrix(0.05,0,0,0.05,20,0)" xlink:href="#S"/><use transform="matrix(0.05,0,0,0.05,25,0)" xlink:href="#ar"/><use transform="matrix(0.05,0,0,0.05,35,0)" xlink:href="#as"/><use transform="matrix(0.05,0,0,0.05,47.95,0)" xlink:href="#P"/><use transform="matrix(0.05,0,0,0.05,57.95,0)" xlink:href="#ag"/><use transform="matrix(0.05,0,0,0.05,63.900000000000006,0)" xlink:href="#ah"/><use transform="matrix(0.05,0,0,0.05,72.9,0)" xlink:href="#Q"/><use transform="matrix(0.05,0,0,0.05,81.9,0)" xlink:href="#ai"/><use transform="matrix(0.05,0,0,0.05,91.9,0)" xlink:href="#Y"/><use transform="matrix(0.05,0,0,0.05,101.9,0)" xlink:href="#aj"/><use transform="matrix(0.05,0,0,0.05,110.9,0)" xlink:href="#ad"/><use transform="matrix(0.05,0,0,0.05,120.9,0)" xlink:href="#aa"/><use transform="matrix(0.05,0,0,0.05,126.85000000000001,0)" xlink:href="#T"/><use transform="matrix(0.05,0,0,0.05,136.85000000000002,0)" xlink:href="#Y"/><use transform="matrix(0.05,0,0,0.05,146.85000000000002,0)" xlink:href="#ak"/><use transform="matrix(0.05,0,0,0.05,161.8,0)" xlink:href="#ad"/><use transform="matrix(0.05,0,0,0.05,171.8,0)" xlink:href="#ac"/></g><path d="M27 0v-27h64v-190l-56 39v-29l58-41h29v221h61V0H27" id="at"/><use transform="matrix(0.05,0,0,0.05,0,0)" xlink:href="#at" id="A"/><path d="M33 0v-38h34V0H33" id="au"/><path d="M80-196l47-18 7 23-49 13 32 44-20 13-27-46-27 45-21-12 33-44-49-13 8-23 47 19-2-53h23" id="av"/><g id="B"><use transform="matrix(0.05,0,0,0.05,0,0)" xlink:href="#at"/><use transform="matrix(0.05,0,0,0.05,10,0)" xlink:href="#au"/><use transform="matrix(0.05,0,0,0.05,15,0)" xlink:href="#au"/><use transform="matrix(0.05,0,0,0.05,20,0)" xlink:href="#av"/></g><path d="M84 4C-5 8 30-112 23-190h32v120c0 31 7 50 39 49 72-2 45-101 50-169h31l1 190h-30c-1-10 1-25-2-33-11 22-28 36-60 37" id="aw"/><g id="C"><use transform="matrix(0.05,0,0,0.05,0,0)" xlink:href="#O"/><use transform="matrix(0.05,0,0,0.05,12,0)" xlink:href="#Y"/><use transform="matrix(0.05,0,0,0.05,22,0)" xlink:href="#S"/><use transform="matrix(0.05,0,0,0.05,27,0)" xlink:href="#ae"/><use transform="matrix(0.05,0,0,0.05,37,0)" xlink:href="#an"/><use transform="matrix(0.05,0,0,0.05,49,0)" xlink:href="#U"/><use transform="matrix(0.05,0,0,0.05,58,0)" xlink:href="#ad"/><use transform="matrix(0.05,0,0,0.05,68,0)" xlink:href="#aj"/><use transform="matrix(0.05,0,0,0.05,77,0)" xlink:href="#aw"/><use transform="matrix(0.05,0,0,0.05,87,0)" xlink:href="#S"/><use transform="matrix(0.05,0,0,0.05,92,0)" xlink:href="#P"/><use transform="matrix(0.05,0,0,0.05,102,0)" xlink:href="#ag"/></g><g id="D"><use transform="matrix(0.05,0,0,0.05,0,0)" xlink:href="#ak"/><use transform="matrix(0.05,0,0,0.05,14.950000000000001,0)" xlink:href="#P"/><use transform="matrix(0.05,0,0,0.05,24.950000000000003,0)" xlink:href="#ao"/><use transform="matrix(0.05,0,0,0.05,33.95,0)" xlink:href="#ad"/><use transform="matrix(0.05,0,0,0.05,43.95,0)" xlink:href="#ar"/><use transform="matrix(0.05,0,0,0.05,53.95,0)" xlink:href="#aq"/><use transform="matrix(0.05,0,0,0.05,63.95,0)" xlink:href="#Y"/><use transform="matrix(0.05,0,0,0.05,73.95,0)" xlink:href="#Q"/><use transform="matrix(0.05,0,0,0.05,82.95,0)" xlink:href="#ad"/><use transform="matrix(0.05,0,0,0.05,92.95,0)" xlink:href="#ar"/><use transform="matrix(0.05,0,0,0.05,102.95,0)" xlink:href="#aj"/><use transform="matrix(0.05,0,0,0.05,111.95,0)" xlink:href="#X"/><use transform="matrix(0.05,0,0,0.05,115.9,0)" xlink:href="#R"/><use transform="matrix(0.05,0,0,0.05,119.85000000000001,0)" xlink:href="#ad"/><use transform="matrix(0.05,0,0,0.05,129.85000000000002,0)" xlink:href="#T"/><use transform="matrix(0.05,0,0,0.05,139.85000000000002,0)" xlink:href="#S"/></g><path d="M205 0l-28-72H64L36 0H1l101-248h38L239 0h-34zm-38-99l-47-123c-12 45-31 82-46 123h93" id="ax"/><path d="M212-179c-10-28-35-45-73-45-59 0-87 40-87 99 0 60 29 101 89 101 43 0 62-24 78-52l27 14C228-24 195 4 139 4 59 4 22-46 18-125c-6-104 99-153 187-111 19 9 31 26 39 46" id="ay"/><g id="E"><use transform="matrix(0.05,0,0,0.05,0,0)" xlink:href="#al"/><use transform="matrix(0.05,0,0,0.05,12,0)" xlink:href="#R"/><use transform="matrix(0.05,0,0,0.05,15.949999999999998,0)" xlink:href="#ak"/><use transform="matrix(0.05,0,0,0.05,30.899999999999995,0)" xlink:href="#ai"/><use transform="matrix(0.05,0,0,0.05,40.9,0)" xlink:href="#X"/><use transform="matrix(0.05,0,0,0.05,44.85,0)" xlink:href="#ad"/><use transform="matrix(0.05,0,0,0.05,54.85,0)" xlink:href="#ax"/><use transform="matrix(0.05,0,0,0.05,66.85,0)" xlink:href="#aj"/><use transform="matrix(0.05,0,0,0.05,75.85,0)" xlink:href="#S"/><use transform="matrix(0.05,0,0,0.05,80.85,0)" xlink:href="#R"/><use transform="matrix(0.05,0,0,0.05,84.8,0)" xlink:href="#P"/><use transform="matrix(0.05,0,0,0.05,94.8,0)" xlink:href="#T"/><use transform="matrix(0.05,0,0,0.05,104.80000000000001,0)" xlink:href="#ay"/><use transform="matrix(0.05,0,0,0.05,117.75,0)" xlink:href="#X"/><use transform="matrix(0.05,0,0,0.05,121.7,0)" xlink:href="#R"/><use transform="matrix(0.05,0,0,0.05,125.65,0)" xlink:href="#ad"/><use transform="matrix(0.05,0,0,0.05,135.65,0)" xlink:href="#T"/><use transform="matrix(0.05,0,0,0.05,145.65,0)" xlink:href="#S"/></g><g id="F"><use transform="matrix(0.05,0,0,0.05,0,0)" xlink:href="#ad"/><use transform="matrix(0.05,0,0,0.05,10,0)" xlink:href="#T"/><use transform="matrix(0.05,0,0,0.05,20,0)" xlink:href="#ao"/><use transform="matrix(0.05,0,0,0.05,29,0)" xlink:href="#R"/><use transform="matrix(0.05,0,0,0.05,32.95,0)" xlink:href="#ag"/><use transform="matrix(0.05,0,0,0.05,38.900000000000006,0)" xlink:href="#P"/><use transform="matrix(0.05,0,0,0.05,48.900000000000006,0)" xlink:href="#T"/><use transform="matrix(0.05,0,0,0.05,58.900000000000006,0)" xlink:href="#ak"/><use transform="matrix(0.05,0,0,0.05,73.85000000000001,0)" xlink:href="#ad"/><use transform="matrix(0.05,0,0,0.05,83.85000000000001,0)" xlink:href="#T"/><use transform="matrix(0.05,0,0,0.05,93.85000000000001,0)" xlink:href="#S"/><use transform="matrix(0.05,0,0,0.05,98.85000000000001,0)" xlink:href="#V"/></g><g id="G"><use transform="matrix(0.05,0,0,0.05,0,0)" xlink:href="#an"/><use transform="matrix(0.05,0,0,0.05,12,0)" xlink:href="#T"/><use transform="matrix(0.05,0,0,0.05,22,0)" xlink:href="#ao"/><use transform="matrix(0.05,0,0,0.05,31,0)" xlink:href="#R"/><use transform="matrix(0.05,0,0,0.05,34.95,0)" xlink:href="#ag"/><use transform="matrix(0.05,0,0,0.05,40.900000000000006,0)" xlink:href="#P"/><use transform="matrix(0.05,0,0,0.05,50.900000000000006,0)" xlink:href="#T"/><use transform="matrix(0.05,0,0,0.05,60.900000000000006,0)" xlink:href="#ak"/><use transform="matrix(0.05,0,0,0.05,75.85000000000001,0)" xlink:href="#ad"/><use transform="matrix(0.05,0,0,0.05,85.85000000000001,0)" xlink:href="#T"/><use transform="matrix(0.05,0,0,0.05,95.85000000000001,0)" xlink:href="#S"/></g><g id="H"><use transform="matrix(0.05,0,0,0.05,0,0)" xlink:href="#aj"/><use transform="matrix(0.05,0,0,0.05,9,0)" xlink:href="#X"/><use transform="matrix(0.05,0,0,0.05,12.949999999999998,0)" xlink:href="#ad"/><use transform="matrix(0.05,0,0,0.05,22.95,0)" xlink:href="#Y"/><use transform="matrix(0.05,0,0,0.05,32.95,0)" xlink:href="#ag"/><use transform="matrix(0.05,0,0,0.05,38.900000000000006,0)" xlink:href="#ar"/><use transform="matrix(0.05,0,0,0.05,48.900000000000006,0)" xlink:href="#aj"/><use transform="matrix(0.05,0,0,0.05,57.900000000000006,0)" xlink:href="#P"/><use transform="matrix(0.05,0,0,0.05,67.9,0)" xlink:href="#Q"/><use transform="matrix(0.05,0,0,0.05,76.9,0)" xlink:href="#S"/><use transform="matrix(0.05,0,0,0.05,81.9,0)" xlink:href="#ak"/><use transform="matrix(0.05,0,0,0.05,96.85000000000001,0)" xlink:href="#Y"/><use transform="matrix(0.05,0,0,0.05,106.85000000000001,0)" xlink:href="#ai"/><use transform="matrix(0.05,0,0,0.05,116.85000000000001,0)" xlink:href="#Q"/><use transform="matrix(0.05,0,0,0.05,125.85000000000001,0)" xlink:href="#V"/></g><g id="I"><use transform="matrix(0.05,0,0,0.05,0,0)" xlink:href="#al"/><use transform="matrix(0.05,0,0,0.05,12,0)" xlink:href="#ad"/><use transform="matrix(0.05,0,0,0.05,22,0)" xlink:href="#ag"/><use transform="matrix(0.05,0,0,0.05,27.950000000000003,0)" xlink:href="#ao"/><use transform="matrix(0.05,0,0,0.05,36.95,0)" xlink:href="#R"/><use transform="matrix(0.05,0,0,0.05,40.900000000000006,0)" xlink:href="#aj"/><use transform="matrix(0.05,0,0,0.05,49.900000000000006,0)" xlink:href="#ad"/><use transform="matrix(0.05,0,0,0.05,59.900000000000006,0)" xlink:href="#O"/><use transform="matrix(0.05,0,0,0.05,71.9,0)" xlink:href="#ag"/><use transform="matrix(0.05,0,0,0.05,77.85000000000001,0)" xlink:href="#P"/><use transform="matrix(0.05,0,0,0.05,87.85000000000001,0)" xlink:href="#U"/><use transform="matrix(0.05,0,0,0.05,96.85000000000001,0)" xlink:href="#Z"/></g><g id="J"><use transform="matrix(0.05,0,0,0.05,0,0)" xlink:href="#O"/><use transform="matrix(0.05,0,0,0.05,12,0)" xlink:href="#Y"/><use transform="matrix(0.05,0,0,0.05,22,0)" xlink:href="#S"/><use transform="matrix(0.05,0,0,0.05,27,0)" xlink:href="#ae"/><use transform="matrix(0.05,0,0,0.05,37,0)" xlink:href="#an"/><use transform="matrix(0.05,0,0,0.05,49,0)" xlink:href="#U"/><use transform="matrix(0.05,0,0,0.05,58,0)" xlink:href="#ad"/><use transform="matrix(0.05,0,0,0.05,68,0)" xlink:href="#aj"/><use transform="matrix(0.05,0,0,0.05,77,0)" xlink:href="#aw"/><use transform="matrix(0.05,0,0,0.05,87,0)" xlink:href="#S"/><use transform="matrix(0.05,0,0,0.05,92,0)" xlink:href="#P"/><use transform="matrix(0.05,0,0,0.05,102,0)" xlink:href="#ag"/><use transform="matrix(0.05,0,0,0.05,107.95,0)" xlink:href="#aa"/><use transform="matrix(0.05,0,0,0.05,113.9,0)" xlink:href="#ac"/></g><g id="K"><use transform="matrix(0.05,0,0,0.05,0,0)" xlink:href="#ag"/><use transform="matrix(0.05,0,0,0.05,5.95,0)" xlink:href="#aw"/><use transform="matrix(0.05,0,0,0.05,15.949999999999998,0)" xlink:href="#T"/><use transform="matrix(0.05,0,0,0.05,25.950000000000003,0)" xlink:href="#aa"/><use transform="matrix(0.05,0,0,0.05,31.899999999999995,0)" xlink:href="#ac"/></g><g id="L"><use transform="matrix(0.05,0,0,0.05,0,0)" xlink:href="#am"/><use transform="matrix(0.05,0,0,0.05,10,0)" xlink:href="#ad"/><use transform="matrix(0.05,0,0,0.05,20,0)" xlink:href="#S"/><use transform="matrix(0.05,0,0,0.05,25,0)" xlink:href="#ar"/><use transform="matrix(0.05,0,0,0.05,35,0)" xlink:href="#am"/><use transform="matrix(0.05,0,0,0.05,45,0)" xlink:href="#P"/><use transform="matrix(0.05,0,0,0.05,55,0)" xlink:href="#Y"/><use transform="matrix(0.05,0,0,0.05,65,0)" xlink:href="#X"/><use transform="matrix(0.05,0,0,0.05,68.95,0)" xlink:href="#Q"/><use transform="matrix(0.05,0,0,0.05,77.95,0)" xlink:href="#aa"/><use transform="matrix(0.05,0,0,0.05,83.9,0)" xlink:href="#ac"/></g><g id="M"><use transform="matrix(0.05,0,0,0.05,0,0)" xlink:href="#aj"/><use transform="matrix(0.05,0,0,0.05,9,0)" xlink:href="#P"/><use transform="matrix(0.05,0,0,0.05,19,0)" xlink:href="#T"/><use transform="matrix(0.05,0,0,0.05,29,0)" xlink:href="#ao"/><use transform="matrix(0.05,0,0,0.05,38,0)" xlink:href="#ad"/><use transform="matrix(0.05,0,0,0.05,48,0)" xlink:href="#ag"/><use transform="matrix(0.05,0,0,0.05,53.95,0)" xlink:href="#S"/><use transform="matrix(0.05,0,0,0.05,58.95,0)" xlink:href="#ar"/><use transform="matrix(0.05,0,0,0.05,68.95,0)" xlink:href="#as"/><use transform="matrix(0.05,0,0,0.05,81.9,0)" xlink:href="#Q"/><use transform="matrix(0.05,0,0,0.05,90.9,0)" xlink:href="#ar"/><use transform="matrix(0.05,0,0,0.05,100.9,0)" xlink:href="#S"/><use transform="matrix(0.05,0,0,0.05,105.9,0)" xlink:href="#P"/><use transform="matrix(0.05,0,0,0.05,115.9,0)" xlink:href="#ar"/><use transform="matrix(0.05,0,0,0.05,125.9,0)" xlink:href="#ak"/><use transform="matrix(0.05,0,0,0.05,140.85,0)" xlink:href="#Q"/><use transform="matrix(0.05,0,0,0.05,149.85,0)" xlink:href="#am"/><use transform="matrix(0.05,0,0,0.05,159.85,0)" xlink:href="#aa"/><use transform="matrix(0.05,0,0,0.05,165.79999999999998,0)" xlink:href="#as"/><use transform="matrix(0.05,0,0,0.05,178.74999999999997,0)" xlink:href="#P"/><use transform="matrix(0.05,0,0,0.05,188.74999999999997,0)" xlink:href="#ag"/><use transform="matrix(0.05,0,0,0.05,194.69999999999996,0)" xlink:href="#ah"/><use transform="matrix(0.05,0,0,0.05,203.69999999999996,0)" xlink:href="#Q"/><use transform="matrix(0.05,0,0,0.05,212.69999999999996,0)" xlink:href="#ai"/><use transform="matrix(0.05,0,0,0.05,222.69999999999996,0)" xlink:href="#Y"/><use transform="matrix(0.05,0,0,0.05,232.69999999999996,0)" xlink:href="#aj"/><use transform="matrix(0.05,0,0,0.05,241.69999999999996,0)" xlink:href="#ad"/><use transform="matrix(0.05,0,0,0.05,251.69999999999996,0)" xlink:href="#ac"/></g><g id="N"><use transform="matrix(0.05,0,0,0.05,0,0)" xlink:href="#ad"/><use transform="matrix(0.05,0,0,0.05,10,0)" xlink:href="#U"/><use transform="matrix(0.05,0,0,0.05,19,0)" xlink:href="#ad"/><use transform="matrix(0.05,0,0,0.05,29,0)" xlink:href="#aj"/><use transform="matrix(0.05,0,0,0.05,38,0)" xlink:href="#aw"/><use transform="matrix(0.05,0,0,0.05,48,0)" xlink:href="#S"/><use transform="matrix(0.05,0,0,0.05,53,0)" xlink:href="#ad"/><use transform="matrix(0.05,0,0,0.05,63,0)" xlink:href="#ar"/><use transform="matrix(0.05,0,0,0.05,73,0)" xlink:href="#ai"/><use transform="matrix(0.05,0,0,0.05,83,0)" xlink:href="#Y"/><use transform="matrix(0.05,0,0,0.05,93,0)" xlink:href="#S"/><use transform="matrix(0.05,0,0,0.05,98,0)" xlink:href="#ae"/><use transform="matrix(0.05,0,0,0.05,108,0)" xlink:href="#aa"/><use transform="matrix(0.05,0,0,0.05,113.95,0)" xlink:href="#ai"/><use transform="matrix(0.05,0,0,0.05,123.95,0)" xlink:href="#Y"/><use transform="matrix(0.05,0,0,0.05,133.95,0)" xlink:href="#S"/><use transform="matrix(0.05,0,0,0.05,138.95,0)" xlink:href="#ae"/><use transform="matrix(0.05,0,0,0.05,148.95,0)" xlink:href="#ac"/></g></defs></g></svg>