<svg xmlns="http://www.w3.org/2000/svg" xmlns:xlink="http://www.w3.org/1999/xlink" width="1518" height="1091"><g transform="translate(-72 -120)"><path d="M92 145c0-2.76 2.24-5 5-5h150c2.76 0 5 2.24 5 5v110c0 2.76-2.24 5-5 5H97c-2.76 0-5-2.24-5-5z" stroke="#666" stroke-width="2" fill="#ff8f80"/><use xlink:href="#a" transform="matrix(1,0,0,1,92,140) translate(49.19753086419753 62.77777777777778)"/><path d="M140 325c0-2.76 2.24-5 5-5h30c2.76 0 5 2.24 5 5v350c0 2.76-2.24 5-5 5h-30c-2.76 0-5-2.24-5-5z" stroke="#666" stroke-width="2" fill="#e5e5e5"/><path d="M920 145c0-2.76 2.24-5 5-5h190c2.76 0 5 2.24 5 5v110c0 2.76-2.24 5-5 5H925c-2.76 0-5-2.24-5-5z" stroke="#666" stroke-width="2" fill="#a3d977"/><use xlink:href="#b" transform="matrix(1,0,0,1,920,140) translate(18.08641975308643 62.77777777777778)"/><path d="M620 145c0-2.76 2.24-5 5-5h150c2.76 0 5 2.24 5 5v110c0 2.76-2.24 5-5 5H625c-2.76 0-5-2.24-5-5z" stroke="#666" stroke-width="2" fill="#83bbe5"/><use xlink:href="#c" transform="matrix(1,0,0,1,620,140) translate(51.51234567901235 51.52777777777778)"/><use xlink:href="#d" transform="matrix(1,0,0,1,620,140) translate(18.611111111111114 78.19444444444446)"/><path d="M1000 385c0-2.76 2.24-5 5-5h30c2.76 0 5 2.24 5 5v50c0 2.76-2.24 5-5 5h-30c-2.76 0-5-2.24-5-5zM680 365c0-2.76 2.24-5 5-5h30c2.76 0 5 2.24 5 5v770c0 2.76-2.24 5-5 5h-30c-2.76 0-5-2.24-5-5z" stroke="#666" stroke-width="2" fill="#e5e5e5"/><path d="M1180 145c0-2.76 2.24-5 5-5h150c2.76 0 5 2.24 5 5v110c0 2.76-2.24 5-5 5h-150c-2.76 0-5-2.24-5-5z" stroke="#666" stroke-width="2" fill="#3aa6dd"/><use xlink:href="#e" transform="matrix(1,0,0,1,1180,140) translate(24.5729012345679 51.52777777777778)"/><use xlink:href="#f" transform="matrix(1,0,0,1,1180,140) translate(86.23956790123457 51.52777777777778)"/><use xlink:href="#g" transform="matrix(1,0,0,1,1180,140) translate(57.84450617283951 78.19444444444446)"/><path d="M1410 145c0-2.76 2.24-5 5-5h150c2.76 0 5 2.24 5 5v110c0 2.76-2.24 5-5 5h-150c-2.76 0-5-2.24-5-5z" stroke="#666" stroke-width="2" fill="#834187"/><use xlink:href="#h" transform="matrix(1,0,0,1,1410,140) translate(22.0729012345679 51.52777777777778)"/><use xlink:href="#i" transform="matrix(1,0,0,1,1410,140) translate(84.9124074074074 51.52777777777778)"/><use xlink:href="#j" transform="matrix(1,0,0,1,1410,140) translate(49.233395061728395 78.19444444444446)"/><path d="M320 145c0-2.76 2.24-5 5-5h150c2.76 0 5 2.24 5 5v110c0 2.76-2.24 5-5 5H325c-2.76 0-5-2.24-5-5z" stroke="#666" stroke-width="2" fill="#fcc438"/><use xlink:href="#k" transform="matrix(1,0,0,1,320,140) translate(47.967962962962964 62.77777777777778)"/><path d="M380 345c0-2.76 2.24-5 5-5h30c2.76 0 5 2.24 5 5v110c0 2.76-2.24 5-5 5h-30c-2.76 0-5-2.24-5-5z" stroke="#666" stroke-width="2" fill="#e5e5e5"/><path d="M181 350.67h199" stroke="#999" stroke-width="2" fill="none"/><path d="M181 351.67h-1v-2h1zM380 350.67l-14.27 4.63v-9.27z" fill="#999"/><path d="M380 349.62v2.1l-15.27 4.96v-12.03zm-13.27 4.3l10.03-3.25-10.03-3.26z" fill="#999"/><use xlink:href="#l" transform="matrix(1,0,0,1,225.71604938271605,320.00000000000006) translate(0 17.77777777777778)"/><use xlink:href="#m" transform="matrix(1,0,0,1,225.71604938271605,320.00000000000006) translate(56.666666666666664 17.77777777777778)"/><path d="M421 361.33h129.63c.2 0 .35.16.35.36 0 .2.16.35.36.35h129.62" stroke="#999" stroke-width="2" fill="none"/><path d="M421 362.33h-1v-2h1zM680.96 362.05l-14.26 4.63v-9.27z" fill="#999"/><path d="M681.96 361.32l-1 .73-.38 1.17-14.88 4.84v-12.02zm-14.26 4l10.03-3.27-10.03-3.26z" fill="#999"/><use xlink:href="#n" transform="matrix(1,0,0,1,507.24131953415366,330.67005040526345) translate(0 17.77777777777778)"/><path d="M721 388.67h279" stroke="#999" stroke-width="2" fill="none"/><path d="M721 389.67h-1v-2h1zM1000 388.67l-14.27 4.63v-9.27z" fill="#999"/><path d="M1000 387.62v2.1l-15.27 4.96v-12.03zm-13.27 4.3l10.03-3.25-10.03-3.26z" fill="#999"/><use xlink:href="#n" transform="matrix(1,0,0,1,816.7345679012345,358) translate(0 17.77777777777778)"/><path d="M1240 475c0-2.76 2.24-5 5-5h30c2.76 0 5 2.24 5 5v50c0 2.76-2.24 5-5 5h-30c-2.76 0-5-2.24-5-5zM1470 545c0-2.76 2.24-5 5-5h30c2.76 0 5 2.24 5 5v50c0 2.76-2.24 5-5 5h-30c-2.76 0-5-2.24-5-5z" stroke="#666" stroke-width="2" fill="#e5e5e5"/><path d="M721 493.33h258.83c.37 0 .67-.3.67-.66 0-.37.3-.67.67-.67H1240" stroke="#999" stroke-width="2" fill="none"/><path d="M721 494.33h-1v-2h1zM1240 492l-14.27 4.64v-9.28z" fill="#999"/><path d="M1240 490.95v2.1l-15.27 4.96v-12zm-13.27 4.3l10.03-3.25-10.03-3.26z" fill="#999"/><use xlink:href="#n" transform="matrix(1,0,0,1,936.6889921273116,461.33965454906405) translate(0 17.77777777777778)"/><path d="M721 553.33h748" stroke="#999" stroke-width="2" fill="none"/><path d="M721 554.33h-1v-2h1zM1469 553.33l-14.27 4.64v-9.27z" fill="#999"/><path d="M1470 552.6v1.46l-16.27 5.3V547.3zm-14.27 4l10.03-3.27-10.03-3.26z" fill="#999"/><use xlink:href="#n" transform="matrix(1,0,0,1,1051.2345679012346,522.6666666666666) translate(0 17.77777777777778)"/><path d="M180 646h500" stroke="#999" stroke-width="2" fill="none"/><path d="M680 646l-14.27 4.64v-9.28z" fill="#999"/><path d="M680 644.95v2.1L664.73 652v-12zm-13.27 4.3l10.03-3.25-10.03-3.26z" fill="#999"/><use xlink:href="#o" transform="matrix(1,0,0,1,439.7683325896177,615.3333333333334) translate(0 17.77777777777778)"/><path d="M1000 685c0-2.76 2.24-5 5-5h30c2.76 0 5 2.24 5 5v110c0 2.76-2.24 5-5 5h-30c-2.76 0-5-2.24-5-5z" stroke="#666" stroke-width="2" fill="#e5e5e5"/><path d="M720 710.76h279" stroke="#999" stroke-width="2" fill="none"/><path d="M999 710.76l-14.27 4.63v-9.28z" fill="#999"/><path d="M1000 710.03v1.45l-16.27 5.3v-12.04zM985.73 714l10.03-3.24-10.03-3.26z" fill="#999"/><use xlink:href="#p" transform="matrix(1,0,0,1,832.4012345679013,714.7554460396004) translate(0 17.77777777777778)"/><path d="M999 764.02H720" stroke="#999" stroke-width="2" fill="none"/><path d="M1000 765.02h-1v-2h1zM734.27 768.65L720 764.02l14.27-4.64z" fill="#999"/><path d="M735.27 770.03L720 765.07v-2.1l15.27-4.97zm-12.03-6l10.03 3.24v-6.5z" fill="#999"/><use xlink:href="#q" transform="matrix(1,0,0,1,772.030864197531,768.0152208879505) translate(0 17.77777777777778)"/><path d="M679 576H181" stroke="#999" stroke-width="2" fill="none"/><path d="M680 577h-1v-2h1zM195.27 580.64L181 576l14.27-4.64z" fill="#999"/><path d="M196.27 582L180 576.74v-1.46l16.27-5.28zm-12.03-6l10.03 3.26v-6.52z" fill="#999"/><use xlink:href="#r" transform="matrix(1,0,0,1,370.9259259259259,579.9999999999999) translate(0 17.77777777777778)"/><path d="M720 832h35c2.76 0 5 2.24 5 5v56c0 2.76-2.24 5-5 5h-35" stroke="#999" stroke-width="2" fill="none"/><path d="M734.27 902.64L720 898l14.27-4.64z" fill="#999"/><path d="M735.27 904L720 899.06v-2.1l15.27-4.96zm-12.03-6l10.03 3.26v-6.52z" fill="#999"/><use xlink:href="#s" transform="matrix(1,0,0,1,768.0000000000001,851.6666666666666) translate(0 17.77777777777778)"/><path d="M1240 925c0-2.76 2.24-5 5-5h30c2.76 0 5 2.24 5 5v70c0 2.76-2.24 5-5 5h-30c-2.76 0-5-2.24-5-5z" stroke="#666" stroke-width="2" fill="#e5e5e5"/><path d="M720 944h519" stroke="#999" stroke-width="2" fill="none"/><path d="M1239 944l-14.27 4.64v-9.28z" fill="#999"/><path d="M1240 943.27v1.46l-16.27 5.28v-12zm-14.27 4l10.03-3.27-10.03-3.26z" fill="#999"/><use xlink:href="#t" transform="matrix(1,0,0,1,888.2962962962963,913.3333333333335) translate(0 17.77777777777778)"/><path d="M1470 1025c0-2.76 2.24-5 5-5h30c2.76 0 5 2.24 5 5v70c0 2.76-2.24 5-5 5h-30c-2.76 0-5-2.24-5-5z" stroke="#666" stroke-width="2" fill="#e5e5e5"/><path d="M720 1038h750" stroke="#999" stroke-width="2" fill="none"/><path d="M1470 1038l-14.27 4.64v-9.28z" fill="#999"/><path d="M1470 1036.95v2.1l-15.27 4.96v-12zm-13.27 4.3l10.03-3.25-10.03-3.26z" fill="#999"/><use xlink:href="#u" transform="matrix(1,0,0,1,822.6207308051684,1007.3333333333334) translate(0 17.77777777777778)"/><path d="M1469 1077.32H720" stroke="#999" stroke-width="2" fill="none"/><path d="M1470 1078.32h-1v-2h1zM734.27 1081.95l-14.27-4.63 14.27-4.64z" fill="#999"/><path d="M735.27 1083.33l-15.27-4.96v-2.1l15.27-4.96zm-12.03-6l10.03 3.25v-6.52z" fill="#999"/><use xlink:href="#v" transform="matrix(1,0,0,1,1068.6358024691358,1081.3190513908357) translate(0 17.77777777777778)"/><path d="M1260 260v940" fill="none"/><path d="M1260 260v10.1m0 10.12v20.2m0 10.12v20.2m0 10.12v20.22m0 10.1v20.22m0 10.1v20.22m0 10.1v20.22m0 10.1v20.23m0 10.1v20.22m0 10.1V543m0 10.12v20.2m0 10.12v20.22m0 10.1v20.22m0 10.1v20.22m0 10.1v20.22m0 10.1v20.23m0 10.1v20.22m0 10.1v20.22m0 10.1v20.2m0 10.12v20.22m0 10.1v20.22m0 10.1v20.22m0 10.1v20.22m0 10.1v20.23m0 10.1v20.22m0 10.1v20.22m0 10.1v20.22m0 10.1v20.22m0 10.1v20.22m0 10.1v20.22m0 10.1v20.22m0 10.1V1200" stroke="#999" stroke-width="2" fill="none"/><path d="M1490 260v940" fill="none"/><path d="M1490 260v10.1m0 10.12v20.2m0 10.12v20.2m0 10.12v20.22m0 10.1v20.22m0 10.1v20.22m0 10.1v20.22m0 10.1v20.23m0 10.1v20.22m0 10.1V543m0 10.12v20.2m0 10.12v20.22m0 10.1v20.22m0 10.1v20.22m0 10.1v20.22m0 10.1v20.23m0 10.1v20.22m0 10.1v20.22m0 10.1v20.2m0 10.12v20.22m0 10.1v20.22m0 10.1v20.22m0 10.1v20.22m0 10.1v20.23m0 10.1v20.22m0 10.1v20.22m0 10.1v20.22m0 10.1v20.22m0 10.1v20.22m0 10.1v20.22m0 10.1v20.22m0 10.1V1200" stroke="#999" stroke-width="2" fill="none"/><path d="M1020 260v940" fill="none"/><path d="M1020 260v10.1m0 10.12v20.2m0 10.12v20.2m0 10.12v20.22m0 10.1v20.22m0 10.1v20.22m0 10.1v20.22m0 10.1v20.23m0 10.1v20.22m0 10.1V543m0 10.12v20.2m0 10.12v20.22m0 10.1v20.22m0 10.1v20.22m0 10.1v20.22m0 10.1v20.23m0 10.1v20.22m0 10.1v20.22m0 10.1v20.2m0 10.12v20.22m0 10.1v20.22m0 10.1v20.22m0 10.1v20.22m0 10.1v20.23m0 10.1v20.22m0 10.1v20.22m0 10.1v20.22m0 10.1v20.22m0 10.1v20.22m0 10.1v20.22m0 10.1v20.22m0 10.1V1200" stroke="#999" stroke-width="2" fill="none"/><path d="M700 260v940" fill="none"/><path d="M700 260v10.1m0 10.12v20.2m0 10.12v20.2m0 10.12v20.22m0 10.1v20.22m0 10.1v20.22m0 10.1v20.22m0 10.1v20.23m0 10.1v20.22m0 10.1V543m0 10.12v20.2m0 10.12v20.22m0 10.1v20.22m0 10.1v20.22m0 10.1v20.22m0 10.1v20.23m0 10.1v20.22m0 10.1v20.22m0 10.1v20.2m0 10.12v20.22m0 10.1v20.22m0 10.1v20.22m0 10.1v20.22m0 10.1v20.23m0 10.1v20.22m0 10.1v20.22m0 10.1v20.22m0 10.1v20.22m0 10.1v20.22m0 10.1v20.22m0 10.1v20.22m0 10.1V1200" stroke="#999" stroke-width="2" fill="none"/><path d="M400 260v940" fill="none"/><path d="M400 260v10.1m0 10.12v20.2m0 10.12v20.2m0 10.12v20.22m0 10.1v20.22m0 10.1v20.22m0 10.1v20.22m0 10.1v20.23m0 10.1v20.22m0 10.1V543m0 10.12v20.2m0 10.12v20.22m0 10.1v20.22m0 10.1v20.22m0 10.1v20.22m0 10.1v20.23m0 10.1v20.22m0 10.1v20.22m0 10.1v20.2m0 10.12v20.22m0 10.1v20.22m0 10.1v20.22m0 10.1v20.22m0 10.1v20.23m0 10.1v20.22m0 10.1v20.22m0 10.1v20.22m0 10.1v20.22m0 10.1v20.22m0 10.1v20.22m0 10.1v20.22m0 10.1V1200" stroke="#999" stroke-width="2" fill="none"/><path d="M159.33 261l.67 939" fill="none"/><path d="M159.33 261v10.1m.02 10.1v20.2m.02 10.08v20.2m.02 10.1v20.2m0 10.08l.03 20.2m0 10.1l.02 20.2m0 10.1l.02 20.18m0 10.1l.02 20.2m0 10.1v20.18m.02 10.1v20.2m.02 10.1l.02 20.18m0 10.1l.02 20.2m0 10.1l.02 20.18m0 10.1l.02 20.2m0 10.1l.02 20.18m0 10.1l.02 20.2m0 10.1l.02 20.18m0 10.1l.03 20.2m0 10.1l.03 20.18m0 10.1l.02 20.2m0 10.1l.02 20.18m0 10.1l.02 20.2m0 10.1v20.18m.02 10.1l.02 20.2m0 10.1l.02 20.18m0 10.1l.02 20.2m0 10.1l.02 20.2m0 10.08l.02 20.2m0 10.1l.02 20.2m0 10.08l.02 20.2m0 10.1l.03 20.2m0 10.08v10.1" stroke="#999" stroke-width="2" fill="none"/><path d="M160.33 261h-2v-1h2z" fill="#999"/><defs><path fill="#333" d="M238-95c0 69-44 99-111 99C63 4 22-25 22-93v-155h51v151c-1 38 19 59 55 60 90 1 49-130 58-211h52v153" id="w"/><path fill="#333" d="M169-182c-1-43-94-46-97-3 18 66 151 10 154 114 3 95-165 93-204 36-6-8-10-19-12-30l50-8c3 46 112 56 116 5-17-69-150-10-154-114-4-87 153-88 188-35 5 8 8 18 10 28" id="x"/><path fill="#333" d="M24 0v-248h195v40H76v63h132v40H76v65h150V0H24" id="y"/><path fill="#333" d="M240-174c0 40-23 61-54 70L253 0h-59l-57-94H76V0H24v-248c93 4 217-23 216 74zM76-134c48-2 112 12 112-38 0-48-66-32-112-35v73" id="z"/><g id="a"><use transform="matrix(0.06172839506172839,0,0,0.06172839506172839,0,0)" xlink:href="#w"/><use transform="matrix(0.06172839506172839,0,0,0.06172839506172839,15.987654320987653,0)" xlink:href="#x"/><use transform="matrix(0.06172839506172839,0,0,0.06172839506172839,30.80246913580247,0)" xlink:href="#y"/><use transform="matrix(0.06172839506172839,0,0,0.06172839506172839,45.61728395061728,0)" xlink:href="#z"/></g><path fill="#333" d="M175 0L67-191c6 58 2 128 3 191H24v-248h59L193-55c-6-58-2-129-3-193h46V0h-61" id="A"/><path fill="#333" d="M147 0H94L2-248h55l64 206c17-72 42-137 63-206h54" id="B"/><path fill="#333" d="M24 0v-248h52V0H24" id="C"/><path fill="#333" d="M140-251c80 0 125 45 125 126S219 4 139 4C58 4 15-44 15-125s44-126 125-126zm-1 214c52 0 73-35 73-88 0-50-21-86-72-86-52 0-73 35-73 86s22 88 72 88" id="D"/><path fill="#333" d="M230 0l2-204L168 0h-37L68-204 70 0H24v-248h70l56 185 57-185h69V0h-46" id="E"/><path fill="#333" d="M136-208V0H84v-208H4v-40h212v40h-80" id="F"/><g id="b"><use transform="matrix(0.06172839506172839,0,0,0.06172839506172839,0,0)" xlink:href="#y"/><use transform="matrix(0.06172839506172839,0,0,0.06172839506172839,14.814814814814813,0)" xlink:href="#A"/><use transform="matrix(0.06172839506172839,0,0,0.06172839506172839,30.80246913580247,0)" xlink:href="#B"/><use transform="matrix(0.06172839506172839,0,0,0.06172839506172839,45.61728395061728,0)" xlink:href="#C"/><use transform="matrix(0.06172839506172839,0,0,0.06172839506172839,51.79012345679012,0)" xlink:href="#z"/><use transform="matrix(0.06172839506172839,0,0,0.06172839506172839,67.77777777777777,0)" xlink:href="#D"/><use transform="matrix(0.06172839506172839,0,0,0.06172839506172839,85.06172839506172,0)" xlink:href="#A"/><use transform="matrix(0.06172839506172839,0,0,0.06172839506172839,101.04938271604938,0)" xlink:href="#E"/><use transform="matrix(0.06172839506172839,0,0,0.06172839506172839,119.50617283950616,0)" xlink:href="#y"/><use transform="matrix(0.06172839506172839,0,0,0.06172839506172839,134.320987654321,0)" xlink:href="#A"/><use transform="matrix(0.06172839506172839,0,0,0.06172839506172839,150.30864197530863,0)" xlink:href="#F"/></g><path fill="#333" d="M24-248c93 1 206-16 204 79-1 75-69 88-152 82V0H24v-248zm52 121c47 0 100 7 100-41 0-47-54-39-100-39v80" id="G"/><path fill="#333" d="M199 0l-22-63H83L61 0H9l90-248h61L250 0h-51zm-33-102l-36-108c-10 38-24 72-36 108h72" id="H"/><path fill="#333" d="M186 0v-106H76V0H24v-248h52v99h110v-99h50V0h-50" id="I"/><g id="c"><use transform="matrix(0.06172839506172839,0,0,0.06172839506172839,0,0)" xlink:href="#G"/><use transform="matrix(0.06172839506172839,0,0,0.06172839506172839,13.148148148148147,0)" xlink:href="#H"/><use transform="matrix(0.06172839506172839,0,0,0.06172839506172839,27.469135802469133,0)" xlink:href="#F"/><use transform="matrix(0.06172839506172839,0,0,0.06172839506172839,40.98765432098765,0)" xlink:href="#I"/></g><path fill="#333" d="M182 0l-62-99L58 0H3l86-130-79-118h55l55 88 55-88h55l-75 118L237 0h-55" id="J"/><path fill="#333" d="M67-125c0 53 21 87 73 88 37 1 54-22 65-47l45 17C233-25 199 4 140 4 58 4 20-42 15-125 8-235 124-281 211-232c18 10 29 29 36 50l-46 12c-8-25-30-41-62-41-52 0-71 34-72 86" id="K"/><g id="d"><use transform="matrix(0.06172839506172839,0,0,0.06172839506172839,0,0)" xlink:href="#y"/><use transform="matrix(0.06172839506172839,0,0,0.06172839506172839,14.814814814814813,0)" xlink:href="#J"/><use transform="matrix(0.06172839506172839,0,0,0.06172839506172839,29.629629629629626,0)" xlink:href="#y"/><use transform="matrix(0.06172839506172839,0,0,0.06172839506172839,44.44444444444444,0)" xlink:href="#K"/><use transform="matrix(0.06172839506172839,0,0,0.06172839506172839,60.432098765432094,0)" xlink:href="#w"/><use transform="matrix(0.06172839506172839,0,0,0.06172839506172839,76.41975308641975,0)" xlink:href="#F"/><use transform="matrix(0.06172839506172839,0,0,0.06172839506172839,89.50617283950616,0)" xlink:href="#D"/><use transform="matrix(0.06172839506172839,0,0,0.06172839506172839,106.79012345679011,0)" xlink:href="#z"/></g><path d="M67-125c0 53 21 87 73 88 37 1 54-22 65-47l45 17C233-25 199 4 140 4 58 4 20-42 15-125 8-235 124-281 211-232c18 10 29 29 36 50l-46 12c-8-25-30-41-62-41-52 0-71 34-72 86" id="L"/><path d="M25 0v-261h50V0H25" id="M"/><path d="M185-48c-13 30-37 53-82 52C43 2 14-33 14-96s30-98 90-98c62 0 83 45 84 108H66c0 31 8 55 39 56 18 0 30-7 34-22zm-45-69c5-46-57-63-70-21-2 6-4 13-4 21h74" id="N"/><path d="M133-34C117-15 103 5 69 4 32 3 11-16 11-54c-1-60 55-63 116-61 1-26-3-47-28-47-18 1-26 9-28 27l-52-2c7-38 36-58 82-57s74 22 75 68l1 82c-1 14 12 18 25 15v27c-30 8-71 5-69-32zm-48 3c29 0 43-24 42-57-32 0-66-3-65 30 0 17 8 27 23 27" id="O"/><path d="M135-150c-39-12-60 13-60 57V0H25l-1-190h47c2 13-1 29 3 40 6-28 27-53 61-41v41" id="P"/><g id="e"><use transform="matrix(0.06172839506172839,0,0,0.06172839506172839,0,0)" xlink:href="#L"/><use transform="matrix(0.06172839506172839,0,0,0.06172839506172839,15.987654320987653,0)" xlink:href="#M"/><use transform="matrix(0.06172839506172839,0,0,0.06172839506172839,22.160493827160494,0)" xlink:href="#N"/><use transform="matrix(0.06172839506172839,0,0,0.06172839506172839,34.50617283950617,0)" xlink:href="#O"/><use transform="matrix(0.06172839506172839,0,0,0.06172839506172839,46.85185185185185,0)" xlink:href="#P"/></g><path d="M110-194c64 0 96 36 96 99 0 64-35 99-97 99-61 0-95-36-95-99 0-62 34-99 96-99zm-1 164c35 0 45-28 45-65 0-40-10-65-43-65-34 0-45 26-45 65 0 36 10 65 43 65" id="Q"/><path d="M137-138c1-29-70-34-71-4 15 46 118 7 119 86 1 83-164 76-172 9l43-7c4 19 20 25 44 25 33 8 57-30 24-41C81-84 22-81 20-136c-2-80 154-74 161-7" id="R"/><path d="M115-3C79 11 28 4 28-45v-112H4v-33h27l15-45h31v45h36v33H77v99c-1 23 16 31 38 25v30" id="S"/><g id="f"><use transform="matrix(0.06172839506172839,0,0,0.06172839506172839,0,0)" xlink:href="#L"/><use transform="matrix(0.06172839506172839,0,0,0.06172839506172839,15.987654320987653,0)" xlink:href="#Q"/><use transform="matrix(0.06172839506172839,0,0,0.06172839506172839,29.50617283950617,0)" xlink:href="#R"/><use transform="matrix(0.06172839506172839,0,0,0.06172839506172839,41.85185185185185,0)" xlink:href="#S"/></g><path d="M230 0l2-204L168 0h-37L68-204 70 0H24v-248h70l56 185 57-185h69V0h-46" id="T"/><path d="M135-194c53 0 70 44 70 98 0 56-19 98-73 100-31 1-45-17-59-34 3 33 2 69 2 105H25l-1-265h48c2 10 0 23 3 31 11-24 29-35 60-35zM114-30c33 0 39-31 40-66 0-38-9-64-40-64-56 0-55 130 0 130" id="U"/><g id="g"><use transform="matrix(0.06172839506172839,0,0,0.06172839506172839,0,0)" xlink:href="#T"/><use transform="matrix(0.06172839506172839,0,0,0.06172839506172839,18.456790123456788,0)" xlink:href="#O"/><use transform="matrix(0.06172839506172839,0,0,0.06172839506172839,30.80246913580247,0)" xlink:href="#U"/></g><path d="M128 0H69L1-190h53L99-40l48-150h52" id="V"/><g id="h"><use transform="matrix(0.06172839506172839,0,0,0.06172839506172839,0,0)" xlink:href="#T"/><use transform="matrix(0.06172839506172839,0,0,0.06172839506172839,18.456790123456788,0)" xlink:href="#Q"/><use transform="matrix(0.06172839506172839,0,0,0.06172839506172839,31.9753086419753,0)" xlink:href="#V"/><use transform="matrix(0.06172839506172839,0,0,0.06172839506172839,44.32098765432098,0)" xlink:href="#N"/></g><path d="M182-130c37 4 62 22 62 59C244 23 116-4 24 0v-248c84 5 203-23 205 63 0 31-19 50-47 55zM76-148c40-3 101 13 101-30 0-44-60-28-101-31v61zm0 110c48-3 116 14 116-37 0-48-69-32-116-35v72" id="W"/><g id="i"><use transform="matrix(0.06172839506172839,0,0,0.06172839506172839,0,0)" xlink:href="#W"/><use transform="matrix(0.06172839506172839,0,0,0.06172839506172839,15.987654320987653,0)" xlink:href="#O"/><use transform="matrix(0.06172839506172839,0,0,0.06172839506172839,28.333333333333332,0)" xlink:href="#R"/><use transform="matrix(0.06172839506172839,0,0,0.06172839506172839,40.67901234567901,0)" xlink:href="#N"/></g><path d="M25-224v-37h50v37H25zM25 0v-190h50V0H25" id="X"/><path d="M135-194c87-1 58 113 63 194h-50c-7-57 23-157-34-157-59 0-34 97-39 157H25l-1-190h47c2 12-1 28 3 38 12-26 28-41 61-42" id="Y"/><g id="j"><use transform="matrix(0.06172839506172839,0,0,0.06172839506172839,0,0)" xlink:href="#L"/><use transform="matrix(0.06172839506172839,0,0,0.06172839506172839,15.987654320987653,0)" xlink:href="#M"/><use transform="matrix(0.06172839506172839,0,0,0.06172839506172839,22.160493827160494,0)" xlink:href="#X"/><use transform="matrix(0.06172839506172839,0,0,0.06172839506172839,28.333333333333332,0)" xlink:href="#N"/><use transform="matrix(0.06172839506172839,0,0,0.06172839506172839,40.67901234567901,0)" xlink:href="#Y"/><use transform="matrix(0.06172839506172839,0,0,0.06172839506172839,54.19753086419753,0)" xlink:href="#S"/></g><path d="M175 0L67-191c6 58 2 128 3 191H24v-248h59L193-55c-6-58-2-129-3-193h46V0h-61" id="Z"/><path d="M140-251c80 0 125 45 125 126S219 4 139 4C58 4 15-44 15-125s44-126 125-126zm-1 214c52 0 73-35 73-88 0-50-21-86-72-86-52 0-73 35-73 86s22 88 72 88" id="aa"/><path d="M24-248c120-7 223 5 221 122C244-46 201 0 124 0H24v-248zM76-40c74 7 117-18 117-86 0-67-45-88-117-82v168" id="ab"/><path d="M24 0v-248h195v40H76v63h132v40H76v65h150V0H24" id="ac"/><g id="k"><use transform="matrix(0.06172839506172839,0,0,0.06172839506172839,0,0)" xlink:href="#Z"/><use transform="matrix(0.06172839506172839,0,0,0.06172839506172839,15.987654320987653,0)" xlink:href="#aa"/><use transform="matrix(0.06172839506172839,0,0,0.06172839506172839,33.2716049382716,0)" xlink:href="#ab"/><use transform="matrix(0.06172839506172839,0,0,0.06172839506172839,49.25925925925925,0)" xlink:href="#ac"/></g><path d="M169-182c-1-43-94-46-97-3 18 66 151 10 154 114 3 95-165 93-204 36-6-8-10-19-12-30l50-8c3 46 112 56 116 5-17-69-150-10-154-114-4-87 153-88 188-35 5 8 8 18 10 28" id="ad"/><g id="l"><use transform="matrix(0.06172839506172839,0,0,0.06172839506172839,0,0)" xlink:href="#ad"/><use transform="matrix(0.06172839506172839,0,0,0.06172839506172839,14.814814814814813,0)" xlink:href="#S"/><use transform="matrix(0.06172839506172839,0,0,0.06172839506172839,22.160493827160494,0)" xlink:href="#O"/><use transform="matrix(0.06172839506172839,0,0,0.06172839506172839,34.50617283950617,0)" xlink:href="#P"/><use transform="matrix(0.06172839506172839,0,0,0.06172839506172839,43.148148148148145,0)" xlink:href="#S"/></g><path d="M88-194c31-1 46 15 58 34l-1-101h50l1 261h-48c-2-10 0-23-3-31C134-8 116 4 84 4 32 4 16-41 15-95c0-56 19-97 73-99zm17 164c33 0 40-30 41-66 1-37-9-64-41-64s-38 30-39 65c0 43 13 65 39 65" id="ae"/><g id="m"><use transform="matrix(0.06172839506172839,0,0,0.06172839506172839,0,0)" xlink:href="#Y"/><use transform="matrix(0.06172839506172839,0,0,0.06172839506172839,13.518518518518517,0)" xlink:href="#Q"/><use transform="matrix(0.06172839506172839,0,0,0.06172839506172839,27.037037037037035,0)" xlink:href="#ae"/><use transform="matrix(0.06172839506172839,0,0,0.06172839506172839,40.55555555555555,0)" xlink:href="#N"/></g><path d="M24 0v-248h52V0H24" id="af"/><path d="M12 0v-35l95-120H19v-35h142v35L67-36h103V0H12" id="ag"/><g id="n"><use transform="matrix(0.06172839506172839,0,0,0.06172839506172839,0,0)" xlink:href="#af"/><use transform="matrix(0.06172839506172839,0,0,0.06172839506172839,6.172839506172839,0)" xlink:href="#Y"/><use transform="matrix(0.06172839506172839,0,0,0.06172839506172839,19.691358024691358,0)" xlink:href="#X"/><use transform="matrix(0.06172839506172839,0,0,0.06172839506172839,25.864197530864196,0)" xlink:href="#S"/><use transform="matrix(0.06172839506172839,0,0,0.06172839506172839,33.20987654320987,0)" xlink:href="#X"/><use transform="matrix(0.06172839506172839,0,0,0.06172839506172839,39.382716049382715,0)" xlink:href="#O"/><use transform="matrix(0.06172839506172839,0,0,0.06172839506172839,51.72839506172839,0)" xlink:href="#M"/><use transform="matrix(0.06172839506172839,0,0,0.06172839506172839,57.901234567901234,0)" xlink:href="#X"/><use transform="matrix(0.06172839506172839,0,0,0.06172839506172839,64.07407407407408,0)" xlink:href="#ag"/><use transform="matrix(0.06172839506172839,0,0,0.06172839506172839,75.18518518518519,0)" xlink:href="#N"/></g><path d="M114-157C55-157 80-60 75 0H25v-261h50l-1 109c12-26 28-41 61-42 86-1 58 113 63 194h-50c-7-57 23-157-34-157" id="ah"/><g id="o"><use transform="matrix(0.06172839506172839,0,0,0.06172839506172839,0,0)" xlink:href="#U"/><use transform="matrix(0.06172839506172839,0,0,0.06172839506172839,13.518518518518517,0)" xlink:href="#O"/><use transform="matrix(0.06172839506172839,0,0,0.06172839506172839,25.864197530864196,0)" xlink:href="#S"/><use transform="matrix(0.06172839506172839,0,0,0.06172839506172839,33.20987654320987,0)" xlink:href="#ah"/></g><path d="M86-200l42-18 12 35-44 11 32 37-32 21-26-44-26 44-32-21 33-37-44-11 12-35 42 18-3-48h38" id="ai"/><path d="M195-6C206 82 75 100 31 46c-4-6-6-13-8-21l49-6c3 16 16 24 34 25 40 0 42-37 40-79-11 22-30 35-61 35-53 0-70-43-70-97 0-56 18-96 73-97 30 0 46 14 59 34l2-30h47zm-90-29c32 0 41-27 41-63 0-35-9-62-40-62-32 0-39 29-40 63 0 36 9 62 39 62" id="aj"/><g id="p"><use transform="matrix(0.06172839506172839,0,0,0.06172839506172839,0,0)" xlink:href="#ai"/><use transform="matrix(0.06172839506172839,0,0,0.06172839506172839,8.641975308641975,0)" xlink:href="#aj"/><use transform="matrix(0.06172839506172839,0,0,0.06172839506172839,22.160493827160494,0)" xlink:href="#Q"/><use transform="matrix(0.06172839506172839,0,0,0.06172839506172839,35.67901234567901,0)" xlink:href="#O"/><use transform="matrix(0.06172839506172839,0,0,0.06172839506172839,48.02469135802469,0)" xlink:href="#M"/></g><path d="M-4 44V30h207v14H-4" id="ak"/><path d="M231 0h-52l-39-155L100 0H48L-1-190h46L77-45c9-52 24-97 36-145h53l37 145 32-145h46" id="al"/><path d="M147 0L96-86 75-71V0H25v-261h50v150l67-79h53l-66 74L201 0h-54" id="am"/><path d="M190-63c-7 42-38 67-86 67-59 0-84-38-90-98-12-110 154-137 174-36l-49 2c-2-19-15-32-35-32-30 0-35 28-38 64-6 74 65 87 74 30" id="an"/><path d="M67-93c0 74 22 123 53 168H70C40 30 18-18 18-93s22-123 52-168h50c-32 44-53 94-53 168" id="ao"/><path d="M102-93c0 74-22 123-52 168H0C30 29 54-18 53-93c0-74-22-123-53-168h50c30 45 52 94 52 168" id="ap"/><g id="q"><use transform="matrix(0.06172839506172839,0,0,0.06172839506172839,0,0)" xlink:href="#aj"/><use transform="matrix(0.06172839506172839,0,0,0.06172839506172839,13.518518518518517,0)" xlink:href="#N"/><use transform="matrix(0.06172839506172839,0,0,0.06172839506172839,25.864197530864196,0)" xlink:href="#S"/><use transform="matrix(0.06172839506172839,0,0,0.06172839506172839,33.20987654320987,0)" xlink:href="#ak"/><use transform="matrix(0.06172839506172839,0,0,0.06172839506172839,45.55555555555555,0)" xlink:href="#al"/><use transform="matrix(0.06172839506172839,0,0,0.06172839506172839,62.8395061728395,0)" xlink:href="#Q"/><use transform="matrix(0.06172839506172839,0,0,0.06172839506172839,76.35802469135801,0)" xlink:href="#P"/><use transform="matrix(0.06172839506172839,0,0,0.06172839506172839,84.99999999999999,0)" xlink:href="#am"/><use transform="matrix(0.06172839506172839,0,0,0.06172839506172839,97.34567901234567,0)" xlink:href="#R"/><use transform="matrix(0.06172839506172839,0,0,0.06172839506172839,109.69135802469135,0)" xlink:href="#U"/><use transform="matrix(0.06172839506172839,0,0,0.06172839506172839,123.20987654320987,0)" xlink:href="#O"/><use transform="matrix(0.06172839506172839,0,0,0.06172839506172839,135.55555555555554,0)" xlink:href="#an"/><use transform="matrix(0.06172839506172839,0,0,0.06172839506172839,147.9012345679012,0)" xlink:href="#N"/><use transform="matrix(0.06172839506172839,0,0,0.06172839506172839,160.24691358024688,0)" xlink:href="#ao"/><use transform="matrix(0.06172839506172839,0,0,0.06172839506172839,167.59259259259255,0)" xlink:href="#ap"/></g><g id="r"><use transform="matrix(0.06172839506172839,0,0,0.06172839506172839,0,0)" xlink:href="#aj"/><use transform="matrix(0.06172839506172839,0,0,0.06172839506172839,13.518518518518517,0)" xlink:href="#N"/><use transform="matrix(0.06172839506172839,0,0,0.06172839506172839,25.864197530864196,0)" xlink:href="#S"/><use transform="matrix(0.06172839506172839,0,0,0.06172839506172839,33.20987654320987,0)" xlink:href="#ak"/><use transform="matrix(0.06172839506172839,0,0,0.06172839506172839,45.55555555555555,0)" xlink:href="#aj"/><use transform="matrix(0.06172839506172839,0,0,0.06172839506172839,59.07407407407407,0)" xlink:href="#Q"/><use transform="matrix(0.06172839506172839,0,0,0.06172839506172839,72.59259259259258,0)" xlink:href="#O"/><use transform="matrix(0.06172839506172839,0,0,0.06172839506172839,84.93827160493827,0)" xlink:href="#M"/><use transform="matrix(0.06172839506172839,0,0,0.06172839506172839,91.1111111111111,0)" xlink:href="#R"/><use transform="matrix(0.06172839506172839,0,0,0.06172839506172839,103.45679012345678,0)" xlink:href="#ao"/><use transform="matrix(0.06172839506172839,0,0,0.06172839506172839,110.80246913580247,0)" xlink:href="#ap"/></g><path d="M220-157c-53 9-28 100-34 157h-49v-107c1-27-5-49-29-50C55-147 81-57 75 0H25l-1-190h47c2 12-1 28 3 38 10-53 101-56 108 0 13-22 24-43 59-42 82 1 51 116 57 194h-49v-107c-1-25-5-48-29-50" id="aq"/><g id="s"><use transform="matrix(0.06172839506172839,0,0,0.06172839506172839,0,0)" xlink:href="#an"/><use transform="matrix(0.06172839506172839,0,0,0.06172839506172839,12.345679012345679,0)" xlink:href="#Q"/><use transform="matrix(0.06172839506172839,0,0,0.06172839506172839,25.864197530864196,0)" xlink:href="#Y"/><use transform="matrix(0.06172839506172839,0,0,0.06172839506172839,39.382716049382715,0)" xlink:href="#V"/><use transform="matrix(0.06172839506172839,0,0,0.06172839506172839,51.72839506172839,0)" xlink:href="#N"/><use transform="matrix(0.06172839506172839,0,0,0.06172839506172839,64.07407407407408,0)" xlink:href="#P"/><use transform="matrix(0.06172839506172839,0,0,0.06172839506172839,72.71604938271605,0)" xlink:href="#S"/><use transform="matrix(0.06172839506172839,0,0,0.06172839506172839,80.06172839506173,0)" xlink:href="#ak"/><use transform="matrix(0.06172839506172839,0,0,0.06172839506172839,92.40740740740742,0)" xlink:href="#al"/><use transform="matrix(0.06172839506172839,0,0,0.06172839506172839,109.69135802469137,0)" xlink:href="#Q"/><use transform="matrix(0.06172839506172839,0,0,0.06172839506172839,123.20987654320989,0)" xlink:href="#P"/><use transform="matrix(0.06172839506172839,0,0,0.06172839506172839,131.85185185185185,0)" xlink:href="#am"/><use transform="matrix(0.06172839506172839,0,0,0.06172839506172839,144.19753086419752,0)" xlink:href="#R"/><use transform="matrix(0.06172839506172839,0,0,0.06172839506172839,156.5432098765432,0)" xlink:href="#U"/><use transform="matrix(0.06172839506172839,0,0,0.06172839506172839,170.0617283950617,0)" xlink:href="#O"/><use transform="matrix(0.06172839506172839,0,0,0.06172839506172839,182.40740740740736,0)" xlink:href="#an"/><use transform="matrix(0.06172839506172839,0,0,0.06172839506172839,194.75308641975303,0)" xlink:href="#N"/><use transform="matrix(0.06172839506172839,0,0,0.06172839506172839,207.0987654320987,0)" xlink:href="#ak"/><use transform="matrix(0.06172839506172839,0,0,0.06172839506172839,219.44444444444437,0)" xlink:href="#S"/><use transform="matrix(0.06172839506172839,0,0,0.06172839506172839,226.79012345679004,0)" xlink:href="#Q"/><use transform="matrix(0.06172839506172839,0,0,0.06172839506172839,240.30864197530855,0)" xlink:href="#ak"/><use transform="matrix(0.06172839506172839,0,0,0.06172839506172839,252.65432098765422,0)" xlink:href="#aq"/><use transform="matrix(0.06172839506172839,0,0,0.06172839506172839,272.4074074074073,0)" xlink:href="#R"/><use transform="matrix(0.06172839506172839,0,0,0.06172839506172839,284.75308641975295,0)" xlink:href="#aj"/><use transform="matrix(0.06172839506172839,0,0,0.06172839506172839,298.2716049382715,0)" xlink:href="#ao"/><use transform="matrix(0.06172839506172839,0,0,0.06172839506172839,305.61728395061715,0)" xlink:href="#ap"/></g><g id="t"><use transform="matrix(0.06172839506172839,0,0,0.06172839506172839,0,0)" xlink:href="#an"/><use transform="matrix(0.06172839506172839,0,0,0.06172839506172839,12.345679012345679,0)" xlink:href="#M"/><use transform="matrix(0.06172839506172839,0,0,0.06172839506172839,18.51851851851852,0)" xlink:href="#N"/><use transform="matrix(0.06172839506172839,0,0,0.06172839506172839,30.864197530864196,0)" xlink:href="#O"/><use transform="matrix(0.06172839506172839,0,0,0.06172839506172839,43.20987654320987,0)" xlink:href="#P"/><use transform="matrix(0.06172839506172839,0,0,0.06172839506172839,51.85185185185185,0)" xlink:href="#ak"/><use transform="matrix(0.06172839506172839,0,0,0.06172839506172839,64.19753086419753,0)" xlink:href="#an"/><use transform="matrix(0.06172839506172839,0,0,0.06172839506172839,76.54320987654322,0)" xlink:href="#Q"/><use transform="matrix(0.06172839506172839,0,0,0.06172839506172839,90.06172839506173,0)" xlink:href="#R"/><use transform="matrix(0.06172839506172839,0,0,0.06172839506172839,102.40740740740742,0)" xlink:href="#S"/><use transform="matrix(0.06172839506172839,0,0,0.06172839506172839,109.7530864197531,0)" xlink:href="#ak"/><use transform="matrix(0.06172839506172839,0,0,0.06172839506172839,122.09876543209879,0)" xlink:href="#aq"/><use transform="matrix(0.06172839506172839,0,0,0.06172839506172839,141.85185185185188,0)" xlink:href="#O"/><use transform="matrix(0.06172839506172839,0,0,0.06172839506172839,154.19753086419755,0)" xlink:href="#U"/><use transform="matrix(0.06172839506172839,0,0,0.06172839506172839,167.71604938271605,0)" xlink:href="#ao"/><use transform="matrix(0.06172839506172839,0,0,0.06172839506172839,175.06172839506172,0)" xlink:href="#ap"/></g><path d="M135-194c52 0 70 43 70 98 0 56-19 99-73 100-30 1-46-15-58-35L72 0H24l1-261h50v104c11-23 29-37 60-37zM114-30c31 0 40-27 40-66 0-37-7-63-39-63s-41 28-41 65c0 36 8 64 40 64" id="ar"/><path d="M24 0v-54h51V0H24" id="as"/><g id="u"><use transform="matrix(0.06172839506172839,0,0,0.06172839506172839,0,0)" xlink:href="#aq"/><use transform="matrix(0.06172839506172839,0,0,0.06172839506172839,19.753086419753085,0)" xlink:href="#Q"/><use transform="matrix(0.06172839506172839,0,0,0.06172839506172839,33.2716049382716,0)" xlink:href="#V"/><use transform="matrix(0.06172839506172839,0,0,0.06172839506172839,45.61728395061728,0)" xlink:href="#N"/><use transform="matrix(0.06172839506172839,0,0,0.06172839506172839,57.962962962962955,0)" xlink:href="#ak"/><use transform="matrix(0.06172839506172839,0,0,0.06172839506172839,70.30864197530863,0)" xlink:href="#ar"/><use transform="matrix(0.06172839506172839,0,0,0.06172839506172839,83.82716049382715,0)" xlink:href="#O"/><use transform="matrix(0.06172839506172839,0,0,0.06172839506172839,96.17283950617283,0)" xlink:href="#R"/><use transform="matrix(0.06172839506172839,0,0,0.06172839506172839,108.51851851851852,0)" xlink:href="#N"/><use transform="matrix(0.06172839506172839,0,0,0.06172839506172839,120.8641975308642,0)" xlink:href="#ak"/><use transform="matrix(0.06172839506172839,0,0,0.06172839506172839,133.20987654320987,0)" xlink:href="#an"/><use transform="matrix(0.06172839506172839,0,0,0.06172839506172839,145.55555555555554,0)" xlink:href="#M"/><use transform="matrix(0.06172839506172839,0,0,0.06172839506172839,151.72839506172838,0)" xlink:href="#X"/><use transform="matrix(0.06172839506172839,0,0,0.06172839506172839,157.9012345679012,0)" xlink:href="#N"/><use transform="matrix(0.06172839506172839,0,0,0.06172839506172839,170.24691358024688,0)" xlink:href="#Y"/><use transform="matrix(0.06172839506172839,0,0,0.06172839506172839,183.7654320987654,0)" xlink:href="#S"/><use transform="matrix(0.06172839506172839,0,0,0.06172839506172839,191.11111111111106,0)" xlink:href="#as"/><use transform="matrix(0.06172839506172839,0,0,0.06172839506172839,197.2839506172839,0)" xlink:href="#R"/><use transform="matrix(0.06172839506172839,0,0,0.06172839506172839,209.62962962962956,0)" xlink:href="#N"/><use transform="matrix(0.06172839506172839,0,0,0.06172839506172839,221.97530864197523,0)" xlink:href="#Y"/><use transform="matrix(0.06172839506172839,0,0,0.06172839506172839,235.49382716049374,0)" xlink:href="#ae"/><use transform="matrix(0.06172839506172839,0,0,0.06172839506172839,249.01234567901224,0)" xlink:href="#ak"/><use transform="matrix(0.06172839506172839,0,0,0.06172839506172839,261.3580246913579,0)" xlink:href="#aj"/><use transform="matrix(0.06172839506172839,0,0,0.06172839506172839,274.87654320987644,0)" xlink:href="#Q"/><use transform="matrix(0.06172839506172839,0,0,0.06172839506172839,288.395061728395,0)" xlink:href="#O"/><use transform="matrix(0.06172839506172839,0,0,0.06172839506172839,300.74074074074065,0)" xlink:href="#M"/><use transform="matrix(0.06172839506172839,0,0,0.06172839506172839,306.9135802469135,0)" xlink:href="#ao"/><use transform="matrix(0.06172839506172839,0,0,0.06172839506172839,314.2592592592592,0)" xlink:href="#ap"/></g><g id="v"><use transform="matrix(0.06172839506172839,0,0,0.06172839506172839,0,0)" xlink:href="#R"/><use transform="matrix(0.06172839506172839,0,0,0.06172839506172839,12.345679012345679,0)" xlink:href="#S"/><use transform="matrix(0.06172839506172839,0,0,0.06172839506172839,19.691358024691358,0)" xlink:href="#O"/><use transform="matrix(0.06172839506172839,0,0,0.06172839506172839,32.03703703703704,0)" xlink:href="#S"/><use transform="matrix(0.06172839506172839,0,0,0.06172839506172839,39.382716049382715,0)" xlink:href="#N"/></g></defs></g></svg>